<?xml version="1.0" encoding="utf-8"?>
<!-- Generator: Adobe Illustrator 27.5.0, SVG Export Plug-In . SVG Version: 6.00 Build 0)  -->
<svg version="1.1" xmlns="http://www.w3.org/2000/svg" xmlns:xlink="http://www.w3.org/1999/xlink" x="0px" y="0px"
	 viewBox="0 0 3710 3710" style="enable-background:new 0 0 3710 3710;" xml:space="preserve">
<g id="Background">
	<g>
		<g>
			<rect style="fill:none;" width="3710" height="3710"/>
		</g>
	</g>
</g>
<g id="Illustration">
	<g>
		<linearGradient id="SVGID_1_" gradientUnits="userSpaceOnUse" x1="3498.8687" y1="3683.7432" x2="1532.5347" y2="1590.5494">
			<stop  offset="0" style="stop-color:#B37CFF"/>
			<stop  offset="1" style="stop-color:#F895E7"/>
		</linearGradient>
		<path style="opacity:0.3;fill:url(#SVGID_1_);" d="M2903.206,2848.601c-72.22,75.152-136.841,119.329-186.316,152.68
			c-482.525,325.259-1034.105,231.511-1204.64,199.469c-275.137-51.697-507.39-88.167-706.937-270.169
			c-453.431-413.564-431.378-1276.288-84.9-1810.709c41.082-63.367,387.034-581.066,939.808-654.014
			c13.52-1.784,23.608-2.8,32.443-3.745c85.513-9.14,615.419-57.38,1047.504,308.073c61.851,52.313,161.387,146.671,253.689,290.584
			C3331.354,1586.979,3332.424,2401.961,2903.206,2848.601z"/>
		<g>
			<g>
				
					<linearGradient id="SVGID_00000019645358944524789550000004320556389628071591_" gradientUnits="userSpaceOnUse" x1="1278.4025" y1="1505.0704" x2="200.4941" y2="550.2096" gradientTransform="matrix(0.8697 0.4936 -0.4936 0.8697 875.4479 -313.4662)">
					<stop  offset="0" style="stop-color:#B37CFF"/>
					<stop  offset="1" style="stop-color:#F895E7"/>
				</linearGradient>
				<path style="fill:url(#SVGID_00000019645358944524789550000004320556389628071591_);" d="M1013.982,1858.325
					c0,0,318.026-767.666,254.463-1357.641c-4.273-39.66-50.596-59.013-81.657-33.986
					C979.088,634.041,412.715,1187.587,1013.982,1858.325z"/>
				<path style="opacity:0.24;fill:#FFFFFF;" d="M979.195,1768.901c0.471,2.72-3.434,3.664-4.266,1.032
					c-30.655-97.041-111.939-523.79,141.672-1074.163c0.815-1.768,3.518-0.714,2.859,1.118
					C1070.905,831.854,904.742,1338.819,979.195,1768.901z"/>
			</g>
			<g>
				
					<linearGradient id="SVGID_00000109738202701419865900000000307118234639575229_" gradientUnits="userSpaceOnUse" x1="2942.1567" y1="1220.0974" x2="2475.4421" y2="2286.219" gradientTransform="matrix(-0.6925 -0.4382 -0.416 0.8915 3314.0276 1121.9163)">
					<stop  offset="0" style="stop-color:#A737D5"/>
					<stop  offset="1" style="stop-color:#EF497A"/>
				</linearGradient>
				<path style="fill:url(#SVGID_00000109738202701419865900000000307118234639575229_);" d="M865.619,2281.235
					c0,0,186.826-1049.926,15.907-1756.514c-11.49-47.498-62.271-56.267-89.494-15.299
					C610.002,783.366,131.095,1650.227,865.619,2281.235z"/>
				<path style="opacity:0.5;fill:#FFFFFF;" d="M814.028,2182.329c0.969,3.199-2.849,5.635-4.17,2.661
					c-48.742-109.642-208.428-609.241-48.337-1370.318c0.514-2.445,3.465-2.026,3.121,0.447
					C739.307,997.313,660.719,1676.396,814.028,2182.329z"/>
			</g>
		</g>
		<g>
			<g>
				
					<linearGradient id="SVGID_00000005960881929926840370000012756147932372823478_" gradientUnits="userSpaceOnUse" x1="1297.7253" y1="2579.365" x2="-2445.8667" y2="6829.5229">
					<stop  offset="0" style="stop-color:#53D8FF"/>
					<stop  offset="1" style="stop-color:#3840F7"/>
				</linearGradient>
				<polygon style="fill:url(#SVGID_00000005960881929926840370000012756147932372823478_);" points="2369.963,976.924 
					1554.042,904.292 738.122,986.425 738.122,2733.618 1554.042,2690.369 2369.963,2738.317 3184.866,2665.13 3184.866,936.311 
									"/>
				
					<linearGradient id="SVGID_00000122692595416023229180000007234869606312313745_" gradientUnits="userSpaceOnUse" x1="1787.0831" y1="577.501" x2="119.1509" y2="4123.4028">
					<stop  offset="0" style="stop-color:#53D8FF"/>
					<stop  offset="1" style="stop-color:#3840F7"/>
				</linearGradient>
				<polygon style="fill:url(#SVGID_00000122692595416023229180000007234869606312313745_);" points="1571.556,2667.954 
					796.324,2708.981 796.324,1051.525 1571.556,973.609 				"/>
				
					<linearGradient id="SVGID_00000013913014356485017520000011397008345466474142_" gradientUnits="userSpaceOnUse" x1="1051.0752" y1="-368.704" x2="2459.5549" y2="3053.6599">
					<stop  offset="0" style="stop-color:#53D8FF"/>
					<stop  offset="1" style="stop-color:#3840F7"/>
				</linearGradient>
				<polygon style="fill:url(#SVGID_00000013913014356485017520000011397008345466474142_);" points="2346.789,2696.022 
					1571.556,2650.537 1571.556,956.193 2346.789,1025.095 				"/>
				
					<linearGradient id="SVGID_00000146480096897098029010000011647944296614770574_" gradientUnits="userSpaceOnUse" x1="4214.063" y1="-451.293" x2="1162.3546" y2="4243.6377">
					<stop  offset="0" style="stop-color:#53D8FF"/>
					<stop  offset="1" style="stop-color:#3840F7"/>
				</linearGradient>
				<polygon style="fill:url(#SVGID_00000146480096897098029010000011647944296614770574_);" points="3121.055,2626.594 
					2346.789,2696.022 2346.789,1025.095 3121.055,986.568 				"/>
				<polygon style="opacity:0.47;fill:#FFFFFF;" points="1554.003,2651.002 1571.556,2651.002 1571.556,956.193 1554.003,973.609 
									"/>
			</g>
			
				<linearGradient id="SVGID_00000076605947561879051130000004290471972765447045_" gradientUnits="userSpaceOnUse" x1="-1368.9724" y1="8187.9292" x2="2868.0625" y2="186.8461">
				<stop  offset="0" style="stop-color:#53D8FF"/>
				<stop  offset="1" style="stop-color:#3840F7"/>
			</linearGradient>
			<path style="fill:url(#SVGID_00000076605947561879051130000004290471972765447045_);" d="M796.324,1662.928
				c66.405,133.043,208.843,248.62,335.024,327.287c57.429,35.804,117.434,69.78,183.468,84.601
				c66.032,14.82,139.685,8.254,194.365-31.62c71.084-51.836,97.561-146.444,172.337-193.94
				c38.132-24.221,84.032-15.661,123.818-40.691c39.165-24.639,68.945-65.734,74.94-112.157
				c4.395-34.031-2.394-68.505-1.326-102.802c4.102-131.766,118.709-232.038,162.139-356.508
				c26.131-74.891,25.541-156.085,24.66-235.399c41.117,6.572,82.847,9.304,124.471,8.148
				c-25.935,114.991-52.26,231.124-103.336,337.363c-25.793,53.651-57.868,104.72-75.581,161.553
				c-7.304,23.434-12.079,48.561-6.495,72.463c5.584,23.902,23.637,46.185,47.81,50.477c42.894,7.612,87.299-37.512,120.364-58.803
				c42.456-27.337,87.879-50.538,136.761-63.902c47.405-12.96,96.952-22.265,138.705-48.186
				c64.688-40.159,100.302-113.493,126.438-185.007c31.948-87.413,54.845-178.13,68.207-270.234
				c79.024-0.11,132.594,1.011,206.217-5.482c-102.904,142.292-178.619,300.276-211.459,472.78
				c-6.352,33.367-11.27,67.915-4.044,101.104c21.423,98.397,190.388,165.478,263.446,224.996
				c81.766,66.613,157.262,142.439,223.802,224.391v122.47c-106.581-113.609-230.93-207.678-368.867-279.951
				c-50.636-26.531-152.243-105.114-210.105-92.265c-29.083,6.458-57.332,16.66-83.83,30.274
				c-12.368,6.354-24.605,13.655-33.573,24.281c-10.804,12.803-15.958,29.305-20.856,45.325
				c-7.164,23.434-14.384,47.18-15.431,71.662c-0.491,11.486,0.387,22.992,1.781,34.404c6.234,51.029,22.91,100.759,48.701,145.23
				c13.519,23.31,41.667,47.436,59.819,68.362c53.842,62.067,117.24,116.919,159.208,187.558
				c28.987,48.79,46.618,102.935,70.22,154.293c20.14,42.293,52.282,78.326,74.286,119.849c-25.967,2.505-51.933,5.01-77.9,7.514
				c-33.234-65.987-75.744-127.293-125.891-181.552c-28.317-30.639-52.251-60.113-85.452-86.922
				c-67.237-54.292-137.103-110.413-219.621-139.491c-87.652-30.888-158.281,24.234-234.336,65.034
				c-110.005,59.012-229.177,88.276-353.113,96.706c-51.364,3.494-79.755,35.166-128.208,49.609
				c-52.287,15.586-101.283,4.214-145.74-26.571c-162.654-112.633-317.83-239.322-448.167-388.81
				c-66.971-76.812-192.452-172.844-189.404-275.606C796.893,1696.625,791.255,1666.365,796.324,1662.928z"/>
		</g>
		<g>
			
				<linearGradient id="SVGID_00000041994633211015464070000004133498613443579568_" gradientUnits="userSpaceOnUse" x1="1317.5665" y1="1810.4915" x2="1386.0682" y2="3290.1226">
				<stop  offset="0" style="stop-color:#FDF53F"/>
				<stop  offset="0.9139" style="stop-color:#DC4C62"/>
				<stop  offset="1" style="stop-color:#D93C65"/>
			</linearGradient>
			
				<rect x="495.554" y="2928.042" style="fill:url(#SVGID_00000041994633211015464070000004133498613443579568_);" width="1752.426" height="106.327"/>
			
				<linearGradient id="SVGID_00000145773790719086239900000016200677516990606215_" gradientUnits="userSpaceOnUse" x1="1136.1528" y1="2550.0591" x2="277.6033" y2="3107.2029">
				<stop  offset="0" style="stop-color:#FDF53F"/>
				<stop  offset="0.9139" style="stop-color:#DC4C62"/>
				<stop  offset="1" style="stop-color:#D93C65"/>
			</linearGradient>
			
				<rect x="460.111" y="2904.413" style="fill:url(#SVGID_00000145773790719086239900000016200677516990606215_);" width="35.442" height="145.707"/>
			
				<linearGradient id="SVGID_00000081618852869623222020000013058174172201404569_" gradientUnits="userSpaceOnUse" x1="1339.2777" y1="1893.6304" x2="1339.2777" y2="4094.803">
				<stop  offset="0" style="stop-color:#FDF53F"/>
				<stop  offset="1" style="stop-color:#D93C65"/>
			</linearGradient>
			<path style="fill:url(#SVGID_00000081618852869623222020000013058174172201404569_);" d="M2218.444,2285.19
				c0-26.55-26.443-48.273-69.213-48.273H538.224c-42.77,0-78.113,21.723-78.113,48.273v603.982
				c0,26.55,35.343,48.715,78.113,48.715h1611.007c42.77,0,69.213-22.164,69.213-48.715V2285.19z"/>
			
				<linearGradient id="SVGID_00000141415225589287740900000016928748611898004122_" gradientUnits="userSpaceOnUse" x1="6845.5537" y1="2397.8118" x2="7182.3315" y2="3713.7368" gradientTransform="matrix(1 0 0 1 -5548.4229 0)">
				<stop  offset="0" style="stop-color:#FDF53F"/>
				<stop  offset="1" style="stop-color:#D93C65"/>
			</linearGradient>
			<path style="fill:url(#SVGID_00000141415225589287740900000016928748611898004122_);" d="M2179.064,2309.53
				c0-24.292-33.444-41.109-73.778-41.109H585.51c-40.334,0-74.204,16.816-74.204,41.109v552.095
				c0,24.292,33.87,42.789,74.204,42.789h1519.776c40.334,0,73.778-18.497,73.778-42.789V2309.53z"/>
			
				<linearGradient id="SVGID_00000142177049971943881550000013119731541855889558_" gradientUnits="userSpaceOnUse" x1="2714.0847" y1="2470.9402" x2="1777.634" y2="3457.7358">
				<stop  offset="0" style="stop-color:#FDF53F"/>
				<stop  offset="1" style="stop-color:#D93C65"/>
			</linearGradient>
			<path style="fill:url(#SVGID_00000142177049971943881550000013119731541855889558_);" d="M2649.547,2710.989l-79.433-242.4
				c-1.991-6.154-7.731-7.204-14.198-7.204c-55.439,0-305.968,0-321.72,0v572.984h434.162L2649.547,2710.989z"/>
			
				<linearGradient id="SVGID_00000096741148489768102000000013030997601161924500_" gradientUnits="userSpaceOnUse" x1="7978.2505" y1="2995.25" x2="8466.2676" y2="3007.5381" gradientTransform="matrix(1 0 0 1 -5548.4229 0)">
				<stop  offset="0" style="stop-color:#53D8FF"/>
				<stop  offset="1" style="stop-color:#3840F7"/>
			</linearGradient>
			<path style="fill:url(#SVGID_00000096741148489768102000000013030997601161924500_);" d="M2674.172,2950.499
				c-4.274-2.81-11.185-4.33-17.143-4.216l-333.613,6.411l-1.9,94.549l335.671,8.167c12.187,0,25.944-5.878,25.944-14.118v-80.095
				C2683.132,2957.167,2678.446,2953.308,2674.172,2950.499z"/>
			<g>
				
					<linearGradient id="SVGID_00000163074385526813694930000010372282616595671958_" gradientUnits="userSpaceOnUse" x1="7948.7954" y1="2601.2273" x2="8313.4063" y2="2610.4082" gradientTransform="matrix(1 0 0 1 -5548.4229 0)">
					<stop  offset="0" style="stop-color:#53D8FF"/>
					<stop  offset="1" style="stop-color:#3840F7"/>
				</linearGradient>
				<path style="fill:url(#SVGID_00000163074385526813694930000010372282616595671958_);" d="M2587.538,2696.527l-48.012-190.031
					c-1.676-6.621-7.634-11.638-14.464-11.638h-187.779c-4.033,0-7.895,2.013-10.705,4.906c-2.81,2.894-4.327,6.992-4.208,11.024
					l4.503,152.379c0.211,7.152,5.47,13.195,12.534,14.336l231.289,37.39c4.959,0.801,9.989-0.935,13.382-4.64
					C2587.471,2706.548,2588.771,2701.397,2587.538,2696.527z"/>
				
					<linearGradient id="SVGID_00000096773916261951635240000000749170480872822201_" gradientUnits="userSpaceOnUse" x1="8136.2339" y1="2604.4482" x2="8259.9131" y2="2607.5625" gradientTransform="matrix(1 0 0 1 -5548.4229 0)">
					<stop  offset="0" style="stop-color:#53D8FF"/>
					<stop  offset="1" style="stop-color:#3840F7"/>
				</linearGradient>
				<path style="fill:url(#SVGID_00000096773916261951635240000000749170480872822201_);" d="M2577.945,2492.52l-2.45,0.406
					c-4.156,0.688-7.827,3.101-10.107,6.643c-2.28,3.542-2.957,7.882-1.863,11.95l52.336,194.625
					c2.024,7.526,9.499,12.226,17.158,10.79l16.527-3.099L2577.945,2492.52z"/>
			</g>
			
				<linearGradient id="SVGID_00000181791358834562476420000010621498518843970234_" gradientUnits="userSpaceOnUse" x1="8065.4238" y1="2667.0808" x2="7831.5088" y2="2787.8113" gradientTransform="matrix(1 0 0 1 -5548.4229 0)">
				<stop  offset="0" style="stop-color:#FDF53F"/>
				<stop  offset="1" style="stop-color:#D93C65"/>
			</linearGradient>
			<path style="fill:url(#SVGID_00000181791358834562476420000010621498518843970234_);" d="M2324.771,2742.715
				c0-7.48,6.064-13.544,13.544-13.544h59.549c7.48,0,13.544,6.064,13.544,13.544v2.448c0,7.48-6.064,13.543-13.544,13.543h-59.549
				c-7.48,0-13.544-6.064-13.544-13.543V2742.715z"/>
			
				<linearGradient id="SVGID_00000159441817830804088520000000972223110760826280_" gradientUnits="userSpaceOnUse" x1="8203.3232" y1="2212.6487" x2="7654.9795" y2="2495.665" gradientTransform="matrix(1 0 0 1 -5548.4229 0)">
				<stop  offset="0" style="stop-color:#FDF53F"/>
				<stop  offset="1" style="stop-color:#D93C65"/>
			</linearGradient>
			<path style="fill:url(#SVGID_00000159441817830804088520000000972223110760826280_);" d="M2258.856,2288.566
				c-5.009-0.365-12.568,0.523-16.248,3.941c-3.68,3.417-8.413,7.367-8.413,12.389v156.488h197.133
				C2431.329,2461.385,2420.864,2300.386,2258.856,2288.566z"/>
			<g>
				<g>
					
						<linearGradient id="SVGID_00000109019167131954402860000018144207933249070493_" gradientUnits="userSpaceOnUse" x1="7833.3516" y1="3049.9167" x2="8135.9756" y2="3049.9167" gradientTransform="matrix(1 0 0 1 -5548.4229 0)">
						<stop  offset="0" style="stop-color:#2B3582"/>
						<stop  offset="1" style="stop-color:#150E42"/>
					</linearGradient>
					
						<circle style="fill:url(#SVGID_00000109019167131954402860000018144207933249070493_);" cx="2436.241" cy="3049.917" r="151.312"/>
					
						<linearGradient id="SVGID_00000136390363358056264770000013473487076288791460_" gradientUnits="userSpaceOnUse" x1="7984.6631" y1="2857.5247" x2="7984.6631" y2="3377.1826" gradientTransform="matrix(1 0 0 1 -5548.4229 0)">
						<stop  offset="0" style="stop-color:#5AB6FF"/>
						<stop  offset="1" style="stop-color:#2F68E3"/>
					</linearGradient>
					
						<circle style="fill:url(#SVGID_00000136390363358056264770000013473487076288791460_);" cx="2436.241" cy="3049.917" r="122.882"/>
					<path style="fill:#FFFFFF;" d="M2539.455,3095.623c-0.436,0-0.878-0.085-1.306-0.265c-1.708-0.721-2.506-2.691-1.783-4.398
						c5.496-12.995,8.284-26.806,8.284-41.044c0-58.139-47.3-105.439-105.441-105.439c-18.039,0-35.836,4.631-51.469,13.392
						c-1.613,0.911-3.661,0.334-4.569-1.285c-0.906-1.619-0.329-3.664,1.288-4.569c16.633-9.324,35.565-14.25,54.75-14.25
						c61.841,0,112.153,50.312,112.153,112.151c0,15.142-2.966,29.832-8.815,43.659
						C2542.007,3094.856,2540.763,3095.623,2539.455,3095.623z"/>
				</g>
				
					<linearGradient id="SVGID_00000145755099073725153480000011334565479980751488_" gradientUnits="userSpaceOnUse" x1="8040.1992" y1="2958.9241" x2="7886.3853" y2="3210.9426" gradientTransform="matrix(1 0 0 1 -5548.4229 0)">
					<stop  offset="0" style="stop-color:#2B3582"/>
					<stop  offset="1" style="stop-color:#150E42"/>
				</linearGradient>
				
					<circle style="fill:url(#SVGID_00000145755099073725153480000011334565479980751488_);" cx="2436.241" cy="3049.917" r="56.354"/>
			</g>
			<g>
				<g>
					
						<linearGradient id="SVGID_00000179643108596930560740000014865608288043996054_" gradientUnits="userSpaceOnUse" x1="6393.9033" y1="3054.1379" x2="6696.5273" y2="3054.1379" gradientTransform="matrix(1 0 0 1 -5548.4229 0)">
						<stop  offset="0" style="stop-color:#2B3582"/>
						<stop  offset="1" style="stop-color:#150E42"/>
					</linearGradient>
					
						<circle style="fill:url(#SVGID_00000179643108596930560740000014865608288043996054_);" cx="996.793" cy="3054.138" r="151.312"/>
					
						<linearGradient id="SVGID_00000083785083283397127760000013318439856801689767_" gradientUnits="userSpaceOnUse" x1="6545.2153" y1="2861.7458" x2="6545.2153" y2="3381.4038" gradientTransform="matrix(1 0 0 1 -5548.4229 0)">
						<stop  offset="0" style="stop-color:#5AB6FF"/>
						<stop  offset="1" style="stop-color:#2F68E3"/>
					</linearGradient>
					
						<circle style="fill:url(#SVGID_00000083785083283397127760000013318439856801689767_);" cx="996.792" cy="3054.138" r="122.882"/>
					<path style="fill:#FFFFFF;" d="M1100.008,3099.844c-0.436,0-0.878-0.085-1.306-0.266c-1.706-0.721-2.506-2.691-1.783-4.398
						c5.496-12.999,8.284-26.81,8.284-41.044c0-58.139-47.3-105.439-105.441-105.439c-18.037,0-35.836,4.631-51.471,13.392
						c-1.616,0.911-3.661,0.334-4.569-1.285c-0.906-1.619-0.329-3.664,1.288-4.569c16.635-9.324,35.567-14.25,54.751-14.25
						c61.841,0,112.153,50.312,112.153,112.151c0,15.139-2.966,29.825-8.815,43.659
						C1102.559,3099.077,1101.315,3099.844,1100.008,3099.844z"/>
				</g>
				
					<linearGradient id="SVGID_00000120520658170782030670000010283856357989032102_" gradientUnits="userSpaceOnUse" x1="6600.751" y1="2963.1453" x2="6446.937" y2="3215.1638" gradientTransform="matrix(1 0 0 1 -5548.4229 0)">
					<stop  offset="0" style="stop-color:#2B3582"/>
					<stop  offset="1" style="stop-color:#150E42"/>
				</linearGradient>
				
					<circle style="fill:url(#SVGID_00000120520658170782030670000010283856357989032102_);" cx="996.793" cy="3054.138" r="56.354"/>
			</g>
			<g>
				<g>
					
						<linearGradient id="SVGID_00000060016722645034291000000001721946122863587006_" gradientUnits="userSpaceOnUse" x1="7246.5972" y1="3054.1379" x2="7549.2212" y2="3054.1379" gradientTransform="matrix(1 0 0 1 -5548.4229 0)">
						<stop  offset="0" style="stop-color:#2B3582"/>
						<stop  offset="1" style="stop-color:#150E42"/>
					</linearGradient>
					
						<circle style="fill:url(#SVGID_00000060016722645034291000000001721946122863587006_);" cx="1849.486" cy="3054.138" r="151.312"/>
					
						<linearGradient id="SVGID_00000166650215014672288880000013177965750739591313_" gradientUnits="userSpaceOnUse" x1="7397.9087" y1="2861.7458" x2="7397.9087" y2="3381.4038" gradientTransform="matrix(1 0 0 1 -5548.4229 0)">
						<stop  offset="0" style="stop-color:#5AB6FF"/>
						<stop  offset="1" style="stop-color:#2F68E3"/>
					</linearGradient>
					
						<circle style="fill:url(#SVGID_00000166650215014672288880000013177965750739591313_);" cx="1849.486" cy="3054.138" r="122.882"/>
					<path style="fill:#FFFFFF;" d="M1952.7,3099.844c-0.436,0-0.878-0.085-1.306-0.266c-1.707-0.721-2.505-2.691-1.783-4.398
						c5.498-12.999,8.285-26.806,8.285-41.044c0-58.139-47.302-105.439-105.442-105.439c-18.039,0-35.836,4.631-51.469,13.392
						c-1.611,0.911-3.659,0.334-4.569-1.285c-0.906-1.619-0.329-3.664,1.288-4.569c16.633-9.324,35.565-14.25,54.75-14.25
						c61.842,0,112.154,50.312,112.154,112.151c0,15.139-2.966,29.828-8.816,43.659
						C1955.252,3099.077,1954.008,3099.844,1952.7,3099.844z"/>
				</g>
				
					<linearGradient id="SVGID_00000115479689657071594000000012292495235701468036_" gradientUnits="userSpaceOnUse" x1="7453.4448" y1="2963.1453" x2="7299.6304" y2="3215.1638" gradientTransform="matrix(1 0 0 1 -5548.4229 0)">
					<stop  offset="0" style="stop-color:#2B3582"/>
					<stop  offset="1" style="stop-color:#150E42"/>
				</linearGradient>
				
					<circle style="fill:url(#SVGID_00000115479689657071594000000012292495235701468036_);" cx="1849.486" cy="3054.138" r="56.354"/>
			</g>
			<g>
				<g>
					
						<linearGradient id="SVGID_00000094606422441818183880000000256339164960595639_" gradientUnits="userSpaceOnUse" x1="6047.7607" y1="3054.1379" x2="6350.3843" y2="3054.1379" gradientTransform="matrix(1 0 0 1 -5548.4229 0)">
						<stop  offset="0" style="stop-color:#2B3582"/>
						<stop  offset="1" style="stop-color:#150E42"/>
					</linearGradient>
					
						<circle style="fill:url(#SVGID_00000094606422441818183880000000256339164960595639_);" cx="650.65" cy="3054.138" r="151.312"/>
					
						<linearGradient id="SVGID_00000144331824269971812010000002460795176408315021_" gradientUnits="userSpaceOnUse" x1="6199.0723" y1="2861.7458" x2="6199.0723" y2="3381.4038" gradientTransform="matrix(1 0 0 1 -5548.4229 0)">
						<stop  offset="0" style="stop-color:#5AB6FF"/>
						<stop  offset="1" style="stop-color:#2F68E3"/>
					</linearGradient>
					
						<circle style="fill:url(#SVGID_00000144331824269971812010000002460795176408315021_);" cx="650.649" cy="3054.138" r="122.882"/>
					<path style="fill:#FFFFFF;" d="M753.864,3099.844c-0.436,0-0.878-0.085-1.306-0.266c-1.707-0.721-2.506-2.691-1.783-4.398
						c5.496-12.995,8.284-26.806,8.284-41.044c0-58.139-47.3-105.439-105.441-105.439c-18.039,0-35.836,4.631-51.469,13.392
						c-1.611,0.911-3.659,0.334-4.569-1.285c-0.906-1.619-0.329-3.664,1.288-4.569c16.633-9.324,35.565-14.25,54.75-14.25
						c61.841,0,112.153,50.312,112.153,112.151c0,15.142-2.966,29.832-8.815,43.659
						C756.416,3099.077,755.172,3099.844,753.864,3099.844z"/>
				</g>
				
					<linearGradient id="SVGID_00000155134765393159893720000005262197394027721145_" gradientUnits="userSpaceOnUse" x1="6254.6079" y1="2963.1453" x2="6100.7939" y2="3215.1638" gradientTransform="matrix(1 0 0 1 -5548.4229 0)">
					<stop  offset="0" style="stop-color:#2B3582"/>
					<stop  offset="1" style="stop-color:#150E42"/>
				</linearGradient>
				<circle style="fill:url(#SVGID_00000155134765393159893720000005262197394027721145_);" cx="650.65" cy="3054.138" r="56.354"/>
			</g>
			<g>
				
					<linearGradient id="SVGID_00000076584930940238314910000016711865433350762882_" gradientUnits="userSpaceOnUse" x1="8166.8652" y1="2935.0371" x2="8212.1318" y2="2826.8401" gradientTransform="matrix(1 0 0 1 -5548.4229 0)">
					<stop  offset="0" style="stop-color:#FDF53F"/>
					<stop  offset="1" style="stop-color:#D93C65"/>
				</linearGradient>
				<path style="fill:url(#SVGID_00000076584930940238314910000016711865433350762882_);" d="M2602.403,2866.187
					c0-8.249,6.687-14.937,14.937-14.937h41.011c8.249,0,14.937,6.687,14.937,14.937v44.949c0,8.249-6.687,14.937-14.937,14.937
					h-41.011c-8.249,0-14.937-6.687-14.937-14.937V2866.187z"/>
				<path style="opacity:0.8;fill:#FFFFFF;" d="M2629.969,2851.25v86.637h-10.634c-8.24,0-22.839-8.768-22.839-17.007v-49.137
					c0-8.24,14.6-20.493,22.839-20.493H2629.969z"/>
			</g>
			<path style="fill:#FFFFFF;" d="M2257.825,2846.729c-1.853,0-3.356-1.501-3.356-3.356v-348.515c0-1.855,1.503-3.356,3.356-3.356
				c1.854,0,3.356,1.501,3.356,3.356v348.515C2261.181,2845.228,2259.678,2846.729,2257.825,2846.729z"/>
			<path style="fill:#FFFFFF;" d="M2395.586,2443.478c-1.393,0-2.692-0.872-3.173-2.261
				c-44.6-129.246-133.755-120.469-137.525-120.037c-1.86,0.24-3.507-1.104-3.722-2.943c-0.216-1.839,1.095-3.503,2.934-3.723
				c0.977-0.125,98.224-10.052,144.659,124.514c0.604,1.753-0.326,3.664-2.078,4.267
				C2396.319,2443.419,2395.948,2443.478,2395.586,2443.478z"/>
		</g>
		<g>
			
				<linearGradient id="SVGID_00000156573290090535210970000015534710526887734685_" gradientUnits="userSpaceOnUse" x1="-3546.1555" y1="2430.9277" x2="-3402.7041" y2="2430.9277" gradientTransform="matrix(-1 0 0 1 -352.2104 0)">
				<stop  offset="0" style="stop-color:#F9B776"/>
				<stop  offset="1" style="stop-color:#F47960"/>
			</linearGradient>
			<path style="fill:url(#SVGID_00000156573290090535210970000015534710526887734685_);" d="M3142.313,2356.995
				c14.716,15.708,36.385,29.281,51.632,37.745c-22.771,28.146-53.583,56.334-94.373,83.923l-11.674,26.197l-37.404-44.83
				C3050.494,2460.031,3117.61,2426.631,3142.313,2356.995z"/>
			
				<linearGradient id="SVGID_00000111188993585219788140000001394329249342605968_" gradientUnits="userSpaceOnUse" x1="-3401.9165" y1="3168.9548" x2="-3294.3503" y2="3168.9548" gradientTransform="matrix(-1 0 0 1 -352.2104 0)">
				<stop  offset="0" style="stop-color:#2B3582"/>
				<stop  offset="1" style="stop-color:#150E42"/>
			</linearGradient>
			<path style="fill:url(#SVGID_00000111188993585219788140000001394329249342605968_);" d="M2942.142,3207.256
				c-0.013-0.802,0.041-1.613,0.247-2.43c12.115-48.031,72.245-77.948,72.245-77.948l23.828,1.867
				c13.7,42.334,11.94,68.298,9.74,79.863c-0.061,0.324-0.159,0.632-0.245,0.946
				C3028.301,3211.31,2987.844,3212.457,2942.142,3207.256z"/>
			
				<linearGradient id="SVGID_00000024691829776707940390000001468343623111772313_" gradientUnits="userSpaceOnUse" x1="-3132.6304" y1="3042.0576" x2="-3523.9592" y2="3349.3301" gradientTransform="matrix(-1 0 0 1 -352.2104 0)">
				<stop  offset="0" style="stop-color:#53D8FF"/>
				<stop  offset="1" style="stop-color:#3840F7"/>
			</linearGradient>
			<path style="fill:url(#SVGID_00000024691829776707940390000001468343623111772313_);" d="M3047.956,3209.554
				c-1.062,3.862-3.913,6.869-7.562,7.636c-27.96,5.88-72.4,1.148-91.059-1.292c-4.117-0.538-7.125-4.345-7.194-8.643
				C2987.844,3212.457,3028.301,3211.31,3047.956,3209.554z"/>
			
				<linearGradient id="SVGID_00000039834287251267909040000002337413532861186717_" gradientUnits="userSpaceOnUse" x1="-3372.0037" y1="3046.4954" x2="-3392.5508" y2="3225.8162" gradientTransform="matrix(-1 0 0 1 -352.2104 0)">
				<stop  offset="0" style="stop-color:#F9B776"/>
				<stop  offset="1" style="stop-color:#F47960"/>
			</linearGradient>
			<path style="fill:url(#SVGID_00000039834287251267909040000002337413532861186717_);" d="M3048.043,3093.255l-10.092,48.582
				c-0.74,3.56-3.475,6.225-6.788,6.537c-4.055,0.381-9.829,0.604-15.635-0.249c-5.207-0.765-8.832-6.056-7.909-11.733l7.014-43.136
				H3048.043z"/>
			
				<linearGradient id="SVGID_00000020366985303299764990000017198717500952841134_" gradientUnits="userSpaceOnUse" x1="-3063.1133" y1="3130.5916" x2="-3454.4424" y2="3437.864" gradientTransform="matrix(-1 0 0 1 -352.2104 0)">
				<stop  offset="0" style="stop-color:#53D8FF"/>
				<stop  offset="1" style="stop-color:#3840F7"/>
			</linearGradient>
			<path style="fill:url(#SVGID_00000020366985303299764990000017198717500952841134_);" d="M2838.948,3209.066
				c26.316-0.737,39.927-3.836,46.964-6.712c0.017,2.616,0.002,5.279-0.083,8.039c-0.091,2.947-2.274,5.301-4.959,5.283
				l-144.49-0.932c-4.611-0.03-7.306-5.378-5.307-9.606C2750.017,3206.702,2798.268,3210.204,2838.948,3209.066z"/>
			
				<linearGradient id="SVGID_00000137817180047584725150000017731577667184281742_" gradientUnits="userSpaceOnUse" x1="-3238.1218" y1="3171.8157" x2="-3083.2822" y2="3171.8157" gradientTransform="matrix(-1 0 0 1 -352.2104 0)">
				<stop  offset="0" style="stop-color:#2B3582"/>
				<stop  offset="1" style="stop-color:#150E42"/>
			</linearGradient>
			<path style="fill:url(#SVGID_00000137817180047584725150000017731577667184281742_);" d="M2731.072,3205.138
				c0.174-0.368,0.324-0.743,0.572-1.09c12.761-17.83,45.261-53.335,109.482-68.733l30.809-0.973c0,0,13.718,23.844,13.977,68.012
				c-7.036,2.876-20.648,5.975-46.964,6.712C2798.268,3210.204,2750.017,3206.702,2731.072,3205.138z"/>
			
				<linearGradient id="SVGID_00000114789031499531397550000006815122246171062718_" gradientUnits="userSpaceOnUse" x1="-3204.6331" y1="3065.6733" x2="-3225.1799" y2="3244.9929" gradientTransform="matrix(-1 0 0 1 -352.2104 0)">
				<stop  offset="0" style="stop-color:#F9B776"/>
				<stop  offset="1" style="stop-color:#F47960"/>
			</linearGradient>
			<path style="fill:url(#SVGID_00000114789031499531397550000006815122246171062718_);" d="M2877.647,3087.651
				c-0.342,2.296-4.565,37.199-6.2,50.732c-0.388,3.216-2.718,5.704-5.654,6.055c-5.246,0.627-13.736,1.197-21.162-0.325
				c-4.007-0.822-6.907-4.67-6.907-9.146v-54.788L2877.647,3087.651z"/>
			
				<linearGradient id="SVGID_00000055690771567456221230000014710390329237535137_" gradientUnits="userSpaceOnUse" x1="2865.0083" y1="3015.97" x2="3292.1035" y2="2090.1536">
				<stop  offset="0" style="stop-color:#2B3582"/>
				<stop  offset="1" style="stop-color:#150E42"/>
			</linearGradient>
			<path style="fill:url(#SVGID_00000055690771567456221230000014710390329237535137_);" d="M2902.364,2450.691
				c0,0-74.308,282.398-72.965,637.768c0.025,6.479,4.574,12.071,10.914,13.406c9.343,1.968,23.077,4.304,34.447,3.986
				c6.069-0.17,11.143-4.671,12.164-10.657c10.419-61.101,70.212-405.318,104.28-461.201c0,0,22.414,306.575,15.249,465.628
				c-0.178,3.955,2.719,7.385,6.651,7.84c5.965,0.69,15.509,1.213,27.655-0.077c4.61-0.49,8.33-3.975,8.989-8.564
				c7.421-51.712,50.137-359.522,48.322-581.256c-0.103-12.504-33.068-66.873-33.068-66.873H2902.364z"/>
			
				<linearGradient id="SVGID_00000114071255093836930380000015913886059026800288_" gradientUnits="userSpaceOnUse" x1="-4131.4775" y1="2045.2429" x2="-4237.0078" y2="3078.5532" gradientTransform="matrix(-1 0 0 1 -1119.979 0)">
				<stop  offset="0" style="stop-color:#CB236D"/>
				<stop  offset="1" style="stop-color:#4C246D"/>
			</linearGradient>
			<path style="fill:url(#SVGID_00000114071255093836930380000015913886059026800288_);" d="M2799.02,2108.919
				c12.06-15.117,22.625-31.321,31.463-48.017c12.343-23.32,0.993,15.096,4.365-11.238c92.432-66.701,231.615-32.94,285.454-26.157
				c17.653,2.224,33.799,10.927,45.432,24.39c46.134,53.389,147.369,199.557,28.212,346.844
				c-15.248-8.464-36.916-22.038-51.632-37.745c13.183-37.161,14.262-84.651-13.365-142.885c-0.944,4.616-2.111,9.186-3.53,13.682
				c-38.078,120.635-40.11,221.023-40.025,244.16c0.012,3.142-1.875,5.97-4.792,7.139c-50.115,20.083-146.586,8.13-178.969,3.304
				c-5.938-0.885-9.932-6.413-9.112-12.36c15.894-115.144-65.674-304.563-87.217-352.006
				C2803.754,2114.617,2801.611,2111.544,2799.02,2108.919z"/>
			
				<linearGradient id="SVGID_00000016064797638058125150000010937690002801354656_" gradientUnits="userSpaceOnUse" x1="-3326.6111" y1="1900.1495" x2="-3405.0637" y2="2239.176" gradientTransform="matrix(-1 0 0 1 -352.2104 0)">
				<stop  offset="0" style="stop-color:#F9B776"/>
				<stop  offset="1" style="stop-color:#F47960"/>
			</linearGradient>
			<path style="fill:url(#SVGID_00000016064797638058125150000010937690002801354656_);" d="M3033.682,1926.55l9.659,98.68
				c0,0-55.513,16.721-95.89-11.768l28.384-89.686L3033.682,1926.55z"/>
			<g>
				
					<linearGradient id="SVGID_00000081618267190229252710000009372324921346272689_" gradientUnits="userSpaceOnUse" x1="-3590.7979" y1="-3062.05" x2="-3729.9829" y2="-2877.9197" gradientTransform="matrix(-0.6854 -0.7281 -0.7281 0.6854 -1703.2095 1318.7853)">
					<stop  offset="0" style="stop-color:#F9B776"/>
					<stop  offset="1" style="stop-color:#F47960"/>
				</linearGradient>
				<path style="fill:url(#SVGID_00000081618267190229252710000009372324921346272689_);" d="M2969.267,1814.077
					c-1.336,1.258-56.387,109.366-56.387,109.366l62.396,30.121l67.401-94.713
					C3042.677,1858.853,2991.635,1793.021,2969.267,1814.077z"/>
				
					<linearGradient id="SVGID_00000150064524130748620390000017711470859735443851_" gradientUnits="userSpaceOnUse" x1="-3697.0957" y1="-3017.8311" x2="-3543.6589" y2="-3017.8311" gradientTransform="matrix(-0.6854 -0.7281 -0.7281 0.6854 -1703.2095 1318.7853)">
					<stop  offset="0" style="stop-color:#2B3582"/>
					<stop  offset="1" style="stop-color:#150E42"/>
				</linearGradient>
				<path style="fill:url(#SVGID_00000150064524130748620390000017711470859735443851_);" d="M3015.069,1861.475
					c1.113,2.88,0.84,6.094-0.749,8.741l-31.12,51.876c-0.473,0.787-1.035,1.499-1.707,2.124
					c-3.704,3.448-16.38,13.477-26.178-0.177c-8.352-11.638-16.188-22.219-24.584-26.582c-4.903-2.549-10.937-0.514-13.426,4.42
					c-5.127,10.162-15.059,30.878-21.298,50.521c-1.563,4.923,0.978,10.209,5.766,12.149c12.634,5.119,37.605,14.376,59.764,17.434
					c3.64,0.503,7.244-1.033,9.41-4.001c9.533-13.06,36.403-49.558,45.574-58.694c8.52-8.487,24.245-5.287,31.33-3.251
					c2.69,0.773,5.554,0.401,7.951-1.043c7.189-4.33,19.734-15.112,8.258-33.369c-2.854-4.539-1.399-10.585,3.081-13.531
					c8.026-5.28,16.736-15.19,8.438-31.239c-8.4-16.247-23.4-17.705-33.617-16.457c-4.52,0.553-9.11-1.818-10.844-6.029
					c-0.771-1.873-2.296-3.469-5.136-4.046c-5.354-1.087-8.869-5.983-7.818-11.345c1.802-9.194,1.348-2.525-13.331-10.595
					c-26.923-14.802-44.788,1.18-50.784,21.54c-5.997,20.36,17.484,24.273,36.419,26.674
					C3004.375,1838.361,3012,1853.541,3015.069,1861.475z"/>
				
					<linearGradient id="SVGID_00000036965623331353172260000001809405995802347151_" gradientUnits="userSpaceOnUse" x1="-3794.6489" y1="-2916.2332" x2="-3683.0115" y2="-3030.77" gradientTransform="matrix(-0.6854 -0.7281 -0.7281 0.6854 -1703.2095 1318.7853)">
					<stop  offset="0" style="stop-color:#F9B776"/>
					<stop  offset="1" style="stop-color:#F47960"/>
				</linearGradient>
				<path style="fill:url(#SVGID_00000036965623331353172260000001809405995802347151_);" d="M3004.832,1938.338
					c0,0,11.971-35.028,27.295-33.742c15.324,1.286,27.385,16.552,8.394,33.713
					C3016.897,1959.654,3004.832,1938.338,3004.832,1938.338z"/>
				<g>
					
						<linearGradient id="SVGID_00000143593047057638296430000003154252805715401859_" gradientUnits="userSpaceOnUse" x1="674.9076" y1="1769.1891" x2="1201.9374" y2="2419.5151" gradientTransform="matrix(-1 0 0 1 3744.2507 0)">
						<stop  offset="0" style="stop-color:#CB236D"/>
						<stop  offset="1" style="stop-color:#4C246D"/>
					</linearGradient>
					<path style="fill:url(#SVGID_00000143593047057638296430000003154252805715401859_);" d="M2939.75,1814.492
						c53.282-100.643,191.38-9.213,127.11,75.569C3019.075,1858.289,2965.079,1811.057,2939.75,1814.492z"/>
				</g>
				
					<linearGradient id="SVGID_00000042010806588245383080000004345374359546312347_" gradientUnits="userSpaceOnUse" x1="711.5494" y1="1739.494" x2="1238.5795" y2="2389.8206" gradientTransform="matrix(-1 0 0 1 3744.2507 0)">
					<stop  offset="0" style="stop-color:#CB236D"/>
					<stop  offset="1" style="stop-color:#4C246D"/>
				</linearGradient>
				<path style="fill:url(#SVGID_00000042010806588245383080000004345374359546312347_);" d="M3022.974,1857.125l-95.677-2.959
					c-2.43-0.075-4.649-1.42-5.827-3.547c-8.571-15.478-21.112-25.338-36.795-30.754c-1.984-0.685-1.573-3.611,0.521-3.753
					l58.658-3.989c0.065-0.005,0.131-0.004,0.196,0.001c29.233,2.247,55.113,19.836,79.799,42.878
					C3024.672,1855.771,3024.1,1857.16,3022.974,1857.125z"/>
			</g>
			
				<linearGradient id="SVGID_00000149372166159852478880000009826312780951619004_" gradientUnits="userSpaceOnUse" x1="-3392.6804" y1="1964.0242" x2="-3555.0842" y2="2262.3943" gradientTransform="matrix(-1 0 0 1 -352.2104 0)">
				<stop  offset="0" style="stop-color:#CB236D"/>
				<stop  offset="1" style="stop-color:#4C246D"/>
			</linearGradient>
			<path style="fill:url(#SVGID_00000149372166159852478880000009826312780951619004_);" d="M3134.001,2205.088
				c20.199-55.278,12.872-122.028,12.795-122.696l-5.566,0.636c0.074,0.656,7.246,66.125-12.493,120.136L3134.001,2205.088z"/>
			
				<linearGradient id="SVGID_00000029031815699602777660000005143955162524691887_" gradientUnits="userSpaceOnUse" x1="-3329.0549" y1="2519.4885" x2="-3384.1592" y2="2617.5554" gradientTransform="matrix(-1 0 0 1 -352.2104 0)">
				<stop  offset="0" style="stop-color:#2B3582"/>
				<stop  offset="1" style="stop-color:#150E42"/>
			</linearGradient>
			<path style="fill:url(#SVGID_00000029031815699602777660000005143955162524691887_);" d="M2993.935,2626.794
				c1.245,0,2.383-0.836,2.708-2.099c6.162-23.767,52.306-49.885,52.771-50.146c1.349-0.757,1.831-2.464,1.073-3.814
				c-0.758-1.349-2.457-1.832-3.814-1.073c-1.984,1.113-48.694,27.554-55.452,53.627c-0.388,1.498,0.512,3.027,2.009,3.415
				C2993.464,2626.765,2993.702,2626.794,2993.935,2626.794z"/>
			<g>
				
					<linearGradient id="SVGID_00000015351798304420260940000008887708966614667174_" gradientUnits="userSpaceOnUse" x1="-3891.0308" y1="2068.1838" x2="-4003.9932" y2="3174.2671" gradientTransform="matrix(-1 0 0 1 -1119.979 0)">
					<stop  offset="0" style="stop-color:#CB236D"/>
					<stop  offset="1" style="stop-color:#4C246D"/>
				</linearGradient>
				<path style="fill:url(#SVGID_00000015351798304420260940000008887708966614667174_);" d="M2611.396,2139.954
					c104.541,15.686,172.678-50.276,223.451-90.29c67.034-52.828,119.199-27.127,119.199-27.127l-71.489,136.437
					c-106.759,100.658-216.219,78.305-285.226,45.686C2596.271,2178.307,2603.313,2156.253,2611.396,2139.954z"/>
				
					<linearGradient id="SVGID_00000162313621577984164490000002605061598813291692_" gradientUnits="userSpaceOnUse" x1="-3478.2285" y1="1891.866" x2="-3958.3154" y2="2506.095" gradientTransform="matrix(-1 0 0 1 -1119.979 0)">
					<stop  offset="0" style="stop-color:#F9B776"/>
					<stop  offset="1" style="stop-color:#F47960"/>
				</linearGradient>
				<path style="fill:url(#SVGID_00000162313621577984164490000002605061598813291692_);" d="M2464.465,2077.585l34.668,18.656
					c41.578,25.314,78.782,38.69,112.264,43.713c-8.083,16.298-15.125,38.353-14.063,64.706
					c-43.929-20.764-71.469-45.686-71.469-45.686C2447.329,2112.144,2464.465,2077.585,2464.465,2077.585z"/>
			</g>
			
				<linearGradient id="SVGID_00000135686747036003243560000009234291996096650139_" gradientUnits="userSpaceOnUse" x1="-3413.9771" y1="1942.0834" x2="-3894.0652" y2="2556.314" gradientTransform="matrix(-1 0 0 1 -1119.979 0)">
				<stop  offset="0" style="stop-color:#F9B776"/>
				<stop  offset="1" style="stop-color:#F47960"/>
			</linearGradient>
			<path style="fill:url(#SVGID_00000135686747036003243560000009234291996096650139_);" d="M2362.334,2126.438
				c2.238-7.44,7.739-13.459,14.948-16.358l70.358-28.293c0,0,1.062-9.024-14.865-15.156c-15.929-6.132-12.205-23.971-12.205-23.971
				s21.76,9.927,53.618,25.671c18.219,9.003,28.44,24.9,33.861,36.867l-18.112,23.819c-43.363,13.027-87.242,15.518-131.495,10.351
				L2362.334,2126.438z"/>
		</g>
		<g>
			<g>
				<g>
					<g>
						
							<linearGradient id="SVGID_00000160879440529108759450000003923646726545482173_" gradientUnits="userSpaceOnUse" x1="915.4205" y1="1276.4729" x2="1386.8416" y2="1276.4729">
							<stop  offset="0" style="stop-color:#FDF53F"/>
							<stop  offset="1" style="stop-color:#D93C65"/>
						</linearGradient>
						
							<circle style="fill:url(#SVGID_00000160879440529108759450000003923646726545482173_);" cx="1151.131" cy="1276.473" r="235.711"/>
						
							<linearGradient id="SVGID_00000063627961886784733440000011475088488047189915_" gradientUnits="userSpaceOnUse" x1="914.9904" y1="1520.917" x2="1386.8657" y2="1520.917">
							<stop  offset="0" style="stop-color:#FDF53F"/>
							<stop  offset="1" style="stop-color:#D93C65"/>
						</linearGradient>
						<path style="fill:url(#SVGID_00000063627961886784733440000011475088488047189915_);" d="M1386.412,1263.836h-235.281H915.42
							c0,0-18.765,130.83,191.603,489.176c9.179,15.635,25.949,24.978,44.079,24.986c18.13,0.008,34.93-9.178,44.108-24.814
							C1405.557,1394.807,1386.412,1263.836,1386.412,1263.836z"/>
					</g>
					<g>
						<path style="opacity:0.8;fill:#FFFFFF;" d="M1151.026,1785.646v1.326h0.073c-20.517,0-39.667-11.289-49.977-28.849
							c-122.967-209.465-168.025-341.909-184.166-416.019c-4.602-17.048-7.246-33.761-8.081-50.895
							c-1.424-17.528-0.335-24.912-0.206-25.692l0.62-3.771c9.497-126.616,114.875-225.154,241.842-225.154
							c128.635,0,234.965,99.935,242.154,227.558c0.181,1.67,0.526,5.907,0.39,12.993l0.011,0.869
							c0,23.151-3.271,46.083-9.722,68.159c-16.697,74.046-62.032,205.183-182.904,411.115
							C1190.685,1774.963,1172.234,1785.646,1151.026,1785.646z M921.854,1274.44c-0.056,3.535,0.051,8.582,0.671,16.182
							l0.015-0.025c0.783,16.232,3.292,31.861,7.672,48.041l0.081,0.271c15.899,73.105,60.49,203.891,182.633,411.951
							c7.864,13.395,22.442,21.703,38.129,21.711l-0.029,6.828v-6.843c14.139,0.001,30.302-8.391,38.231-21.899
							c120.096-204.613,164.933-334.648,181.377-407.704l0.122-0.423c6.125-20.89,7.866-42.597,7.866-64.518l-1.375-0.963v-0.077
							c0-6.823,1.155-10.513,1.045-11.481l0.652-0.396c-6.691-120.464-106.717-214.827-228.156-214.827
							c-121.205,0-221.391,95.694-228.301,217.214l-0.196,6.959H921.854z"/>
					</g>
					
						<ellipse transform="matrix(0.7071 -0.7071 0.7071 0.7071 -564.6838 1188.1578)" style="fill:#FFFFFF;" cx="1151.891" cy="1275.713" rx="136.104" ry="136.104"/>
					<g>
						
							<linearGradient id="SVGID_00000037672751360645572420000014271355447413205690_" gradientUnits="userSpaceOnUse" x1="1148.2477" y1="557.7958" x2="1153.2809" y2="1549.4778">
							<stop  offset="0" style="stop-color:#FDF53F"/>
							<stop  offset="1" style="stop-color:#D93C65"/>
						</linearGradient>
						<path style="fill:url(#SVGID_00000037672751360645572420000014271355447413205690_);" d="M1151.891,1419.42
							c-79.24,0-143.707-64.467-143.707-143.707c0-79.241,64.467-143.708,143.707-143.708c79.241,0,143.708,64.467,143.708,143.708
							C1295.599,1354.953,1231.132,1419.42,1151.891,1419.42z M1151.891,1147.212c-70.855,0-128.5,57.645-128.5,128.5
							c0,70.855,57.645,128.5,128.5,128.5c70.855,0,128.501-57.645,128.501-128.5
							C1280.392,1204.857,1222.747,1147.212,1151.891,1147.212z"/>
					</g>
				</g>
				<g>
					<path style="fill:#FFFFFF;" d="M1022.783,1134.007c-0.642,0-1.28-0.27-1.732-0.795c-0.82-0.955-0.711-2.395,0.245-3.216
						c38.235-32.837,87.085-50.921,137.551-50.921c1.26,0,2.281,1.021,2.281,2.281s-1.021,2.281-2.281,2.281
						c-49.377,0-97.171,17.693-134.58,49.819C1023.838,1133.826,1023.309,1134.007,1022.783,1134.007z"/>
				</g>
				<g>
					<path style="fill:#FFFFFF;" d="M949.901,1292.583c-1.26,0-2.281-1.021-2.281-2.281c0-39.413,10.927-77.862,31.599-111.189
						c0.665-1.071,2.071-1.4,3.141-0.736c1.071,0.664,1.4,2.071,0.737,3.141c-20.224,32.604-30.914,70.221-30.914,108.784
						C952.182,1291.562,951.162,1292.583,949.901,1292.583z"/>
				</g>
				<circle style="fill:#FFFFFF;" cx="1159.49" cy="1910.863" r="60.335"/>
			</g>
			<g>
				<g>
					<g>
						
							<linearGradient id="SVGID_00000047746667762075844740000016482682044164439686_" gradientUnits="userSpaceOnUse" x1="2898.4626" y1="436.4255" x2="2934.6646" y2="1325.3914">
							<stop  offset="0" style="stop-color:#FDF53F"/>
							<stop  offset="1" style="stop-color:#D93C65"/>
						</linearGradient>
						
							<circle style="fill:url(#SVGID_00000047746667762075844740000016482682044164439686_);" cx="2909.868" cy="716.494" r="188.35"/>
						
							<linearGradient id="SVGID_00000023276958373200525690000004813293892033930112_" gradientUnits="userSpaceOnUse" x1="2898.3928" y1="436.4285" x2="2934.5947" y2="1325.3949">
							<stop  offset="0" style="stop-color:#FDF53F"/>
							<stop  offset="1" style="stop-color:#D93C65"/>
						</linearGradient>
						<path style="fill:url(#SVGID_00000023276958373200525690000004813293892033930112_);" d="M3097.874,706.396h-188.006h-188.35
							c0,0-14.995,104.543,153.104,390.887c7.334,12.493,20.735,19.959,35.222,19.966c14.487,0.007,27.912-7.334,35.245-19.828
							C3113.173,811.052,3097.874,706.396,3097.874,706.396z"/>
					</g>
					<g>
						<path style="opacity:0.8;fill:#FFFFFF;" d="M2909.784,1123.36v1.06h0.058c-16.395,0-31.697-9.021-39.935-23.053
							c-98.26-167.378-134.265-273.21-147.162-332.429c-3.677-13.622-5.79-26.977-6.457-40.669
							c-1.138-14.006-0.267-19.906-0.165-20.53l0.495-3.013c7.589-101.175,91.794-179.914,193.25-179.914
							c102.789,0,187.754,79.855,193.498,181.836c0.144,1.335,0.42,4.72,0.312,10.383l0.009,0.695c0,18.5-2.614,36.823-7.768,54.464
							c-13.342,59.168-49.568,163.956-146.154,328.511C2941.474,1114.823,2926.731,1123.36,2909.784,1123.36z M2726.659,714.869
							c-0.045,2.825,0.041,6.858,0.536,12.931l0.012-0.02c0.625,12.97,2.631,25.46,6.13,38.388l0.065,0.217
							c12.705,58.416,48.336,162.924,145.937,329.179c6.283,10.703,17.933,17.343,30.468,17.349l-0.023,5.456v-5.468
							c11.298,0.001,24.214-6.705,30.55-17.499c95.966-163.501,131.793-267.408,144.933-325.785l0.098-0.338
							c4.894-16.692,6.285-34.038,6.285-51.554l-1.099-0.77v-0.062c0-5.452,0.923-8.4,0.835-9.174l0.521-0.317
							c-5.347-96.259-85.275-171.662-182.313-171.662c-96.852,0-176.908,76.467-182.429,173.57l-0.156,5.561H2726.659z"/>
					</g>
					
						<ellipse transform="matrix(0.7071 -0.7071 0.7071 0.7071 346.2506 2267.6953)" style="fill:#FFFFFF;" cx="2910.476" cy="715.886" rx="108.757" ry="108.757"/>
					<g>
						
							<linearGradient id="SVGID_00000111150199235383306090000005334088273093914298_" gradientUnits="userSpaceOnUse" x1="2905.0867" y1="206.6447" x2="2913.1318" y2="966.8921">
							<stop  offset="0" style="stop-color:#FDF53F"/>
							<stop  offset="1" style="stop-color:#D93C65"/>
						</linearGradient>
						<path style="fill:url(#SVGID_00000111150199235383306090000005334088273093914298_);" d="M2910.476,830.719
							c-63.319,0-114.833-51.514-114.833-114.833c0-63.319,51.514-114.833,114.833-114.833c63.319,0,114.833,51.514,114.833,114.833
							C3025.308,779.205,2973.795,830.719,2910.476,830.719z M2910.476,613.205c-56.618,0-102.681,46.063-102.681,102.681
							c0,56.618,46.063,102.681,102.681,102.681c56.618,0,102.681-46.063,102.681-102.681
							C3013.157,659.268,2967.094,613.205,2910.476,613.205z"/>
					</g>
				</g>
				<g>
					<path style="fill:#FFFFFF;" d="M2807.309,602.653c-0.513,0-1.023-0.216-1.384-0.635c-0.656-0.763-0.568-1.914,0.196-2.57
						c30.552-26.239,69.587-40.689,109.913-40.689c1.007,0,1.823,0.816,1.823,1.823s-0.816,1.823-1.823,1.823
						c-39.456,0-77.647,14.138-107.539,39.809C2808.152,602.508,2807.729,602.653,2807.309,602.653z"/>
				</g>
				<g>
					<path style="fill:#FFFFFF;" d="M2749.071,729.367c-1.007,0-1.823-0.816-1.823-1.823c0-31.494,8.731-62.217,25.25-88.848
						c0.531-0.856,1.655-1.119,2.51-0.588c0.855,0.531,1.119,1.655,0.589,2.51c-16.161,26.053-24.703,56.111-24.703,86.926
						C2750.894,728.551,2750.078,729.367,2749.071,729.367z"/>
				</g>
				<circle style="fill:#FFFFFF;" cx="2912.377" cy="1243.014" r="60.335"/>
			</g>
			<path style="fill:#FFFFFF;" d="M1161.126,1944.262c-2.835,0-5.677-1.019-7.931-3.084c-4.784-4.385-5.108-11.815-0.726-16.597
				c7.607-8.305,15.235-16.551,22.888-24.725c4.436-4.736,11.869-4.982,16.604-0.547c4.736,4.431,4.98,11.868,0.547,16.6
				c-7.597,8.115-15.167,16.302-22.718,24.542C1167.473,1942.98,1164.305,1944.262,1161.126,1944.262z M1218.743,1883.213
				c-2.966,0-5.932-1.114-8.217-3.353c-4.636-4.539-4.715-11.976-0.177-16.61c8.089-8.262,16.12-16.315,23.87-23.929
				c4.628-4.546,12.063-4.484,16.612,0.144c4.546,4.628,4.482,12.064-0.146,16.61c-7.641,7.512-15.565,15.453-23.549,23.608
				C1224.836,1882.033,1221.79,1883.213,1218.743,1883.213z M2463.172,1829.99c-6.397,0-11.635-5.133-11.741-11.55
				c-0.108-6.486,5.062-11.835,11.55-11.943c6.435-0.105,12.928-0.292,19.314-0.557c3.789-0.878,7.545-1.776,11.266-2.694
				c6.301-1.55,12.662,2.297,14.216,8.594c1.552,6.299-2.296,12.664-8.595,14.218c-4.179,1.029-8.4,2.035-12.663,3.019l-1.055,0.246
				l-1.083,0.046c-6.937,0.295-14.006,0.505-21.01,0.623C2463.305,1829.99,2463.238,1829.99,2463.172,1829.99z M2412.857,1829.295
				c-0.172,0-0.344-0.003-0.518-0.01c-11.155-0.485-22.549-1.19-33.863-2.098c-6.467-0.521-11.289-6.184-10.77-12.651
				c0.518-6.463,6.191-11.324,12.648-10.766c11.031,0.885,22.134,1.57,33.004,2.042c6.481,0.282,11.507,5.765,11.225,12.245
				C2424.31,1824.366,2419.11,1829.295,2412.857,1829.295z M1278.98,1824.796c-3.188,0-6.362-1.288-8.679-3.828
				c-4.374-4.792-4.035-12.222,0.757-16.594c8.546-7.8,17.087-15.368,25.387-22.493c4.921-4.231,12.338-3.661,16.563,1.259
				c4.226,4.923,3.663,12.34-1.26,16.564c-8.12,6.974-16.482,14.382-24.853,22.021
				C1284.643,1823.78,1281.807,1824.796,1278.98,1824.796z M2329.403,1821.905c-0.51,0-1.024-0.033-1.542-0.098
				c-10.929-1.436-22.207-3.094-33.519-4.939c-6.404-1.042-10.749-7.076-9.706-13.48c1.044-6.407,7.079-10.753,13.482-9.704
				c11.074,1.803,22.11,3.428,32.797,4.828c6.432,0.846,10.963,6.742,10.119,13.175
				C2340.26,1817.598,2335.21,1821.905,2329.403,1821.905z M2544.789,1812.865c-4.991,0-9.621-3.205-11.201-8.22
				c-1.948-6.188,1.486-12.782,7.674-14.732c10.567-3.33,21.068-6.909,31.208-10.635c6.091-2.242,12.838,0.885,15.078,6.974
				c2.239,6.089-0.885,12.838-6.973,15.076c-10.486,3.854-21.336,7.551-32.254,10.989
				C2547.147,1812.689,2545.959,1812.865,2544.789,1812.865z M2246.757,1807.897c-0.782,0-1.576-0.078-2.373-0.242
				c-10.762-2.209-21.871-4.634-33.022-7.21c-6.32-1.458-10.262-7.768-8.802-14.086c1.458-6.326,7.758-10.272,14.088-8.803
				c10.965,2.53,21.885,4.916,32.46,7.086c6.354,1.304,10.448,7.515,9.144,13.87
				C2257.11,1804.069,2252.217,1807.897,2246.757,1807.897z M2165.173,1788.632c-0.993,0-2.003-0.128-3.009-0.393
				c-10.56-2.789-21.521-5.794-32.583-8.934c-6.24-1.773-9.864-8.269-8.092-14.509c1.773-6.24,8.269-9.862,14.508-8.092
				c10.924,3.1,21.746,6.07,32.168,8.823c6.271,1.655,10.013,8.085,8.356,14.355
				C2175.13,1785.148,2170.374,1788.632,2165.173,1788.632z M2623.006,1782.9c-4.446,0-8.7-2.537-10.68-6.84
				c-2.712-5.893-0.133-12.871,5.762-15.581c10.026-4.611,19.927-9.515,29.428-14.572c5.726-3.045,12.838-0.875,15.887,4.851
				c3.048,5.729,0.875,12.841-4.852,15.889c-9.898,5.267-20.209,10.373-30.644,15.175
				C2626.317,1782.552,2624.647,1782.9,2623.006,1782.9z M1343.147,1770.767c-3.527,0-7.012-1.58-9.326-4.595
				c-3.949-5.146-2.981-12.52,2.166-16.469c9.134-7.01,18.372-13.795,27.455-20.166c5.311-3.717,12.636-2.435,16.361,2.878
				c3.725,5.309,2.437,12.635-2.874,16.361c-8.808,6.175-17.77,12.756-26.639,19.563
				C1348.159,1769.974,1345.643,1770.767,1343.147,1770.767z M2084.511,1765.441c-1.146,0-2.311-0.17-3.463-0.524
				c-10.796-3.327-21.515-6.702-32.152-10.111c-6.178-1.98-9.582-8.594-7.602-14.771c1.981-6.178,8.6-9.583,14.77-7.6
				c10.555,3.382,21.19,6.732,31.903,10.032c6.199,1.911,9.677,8.485,7.766,14.683
				C2094.178,1762.196,2089.531,1765.441,2084.511,1765.441z M2696.255,1742.351c-3.812,0-7.548-1.849-9.808-5.267
				c-3.579-5.411-2.094-12.697,3.315-16.276c9.139-6.047,18.103-12.425,26.644-18.963c5.15-3.936,12.525-2.963,16.468,2.189
				c3.943,5.149,2.963,12.523-2.188,16.466c-8.969,6.863-18.377,13.559-27.962,19.901
				C2700.729,1741.722,2698.479,1742.351,2696.255,1742.351z M2004.622,1739.68c-1.234,0-2.486-0.197-3.722-0.606
				c-10.717-3.579-21.343-7.161-31.87-10.724c-6.145-2.081-9.439-8.751-7.358-14.896c2.08-6.145,8.751-9.439,14.893-7.358
				c10.495,3.556,21.087,7.125,31.775,10.691c6.153,2.055,9.477,8.708,7.422,14.863
				C2014.12,1736.57,2009.538,1739.68,2004.622,1739.68z M1412.485,1723.574c-4.017,0-7.93-2.062-10.122-5.772
				c-3.302-5.581-1.452-12.785,4.131-16.089c9.962-5.893,20.052-11.468,29.987-16.574c5.765-2.963,12.853-0.695,15.815,5.08
				c2.966,5.768,0.692,12.851-5.078,15.817c-9.523,4.893-19.201,10.242-28.765,15.899
				C1416.577,1723.044,1414.517,1723.574,1412.485,1723.574z M1925.109,1712.782c-1.25,0-2.519-0.2-3.767-0.623
				c-10.711-3.625-21.305-7.197-31.775-10.688c-6.155-2.052-9.48-8.705-7.428-14.86c2.053-6.152,8.707-9.465,14.858-7.427
				c10.506,3.504,21.133,7.083,31.877,10.72c6.145,2.081,9.441,8.748,7.361,14.893
				C1934.576,1709.694,1930.005,1712.782,1925.109,1712.782z M2761.75,1690.259c-3.097,0-6.188-1.216-8.497-3.635
				c-4.48-4.69-4.31-12.127,0.382-16.607c7.863-7.509,15.509-15.384,22.728-23.408c4.343-4.824,11.766-5.218,16.589-0.875
				c4.823,4.336,5.216,11.766,0.877,16.587c-7.615,8.462-15.678,16.767-23.966,24.686
				C2767.586,1689.181,2764.665,1690.259,2761.75,1690.259z M1487.685,1686.579c-4.692,0-9.123-2.828-10.938-7.459
				c-2.37-6.04,0.606-12.858,6.647-15.227c10.734-4.208,21.659-8.036,32.471-11.373c6.211-1.921,12.774,1.557,14.689,7.758
				c1.914,6.198-1.56,12.776-7.758,14.686c-10.26,3.169-20.63,6.804-30.826,10.802
				C1490.563,1686.316,1489.111,1686.579,1487.685,1686.579z M1845.393,1686.493c-1.172,0-2.361-0.177-3.538-0.547
				c-11.353-3.582-21.787-6.775-31.898-9.76c-6.222-1.835-9.778-8.367-7.941-14.591c1.837-6.217,8.369-9.773,14.593-7.938
				c10.25,3.025,20.822,6.26,32.316,9.885c6.186,1.953,9.619,8.551,7.667,14.735
				C1855.011,1683.288,1850.383,1686.493,1845.393,1686.493z M1764.728,1663.354c-0.941,0-1.896-0.115-2.851-0.354
				c-11.189-2.789-22.038-5.267-32.244-7.361c-6.353-1.304-10.449-7.515-9.142-13.87c1.304-6.352,7.51-10.455,13.868-9.144
				c10.526,2.163,21.697,4.713,33.204,7.584c6.294,1.57,10.124,7.945,8.554,14.237
				C1774.785,1659.789,1769.994,1663.354,1764.728,1663.354z M1566.439,1658.347c-4.741,0-9.206-2.891-10.986-7.587
				c-2.299-6.067,0.755-12.848,6.822-15.145c10.755-4.077,22.31-7.263,34.346-9.465c6.389-1.173,12.502,3.055,13.672,9.436
				c1.168,6.381-3.056,12.504-9.438,13.67c-10.645,1.95-20.825,4.752-30.256,8.325
				C1569.23,1658.101,1567.822,1658.347,1566.439,1658.347z M1682.33,1647.901c-0.429,0-0.862-0.023-1.298-0.069
				c-11.25-1.236-22.147-1.957-32.386-2.14c-6.486-0.115-11.651-5.467-11.535-11.953c0.115-6.414,5.352-11.537,11.741-11.537
				c0.07,0,0.141,0,0.213,0.003c10.953,0.193,22.572,0.96,34.533,2.271c6.448,0.711,11.101,6.512,10.393,12.959
				C1693.33,1643.451,1688.242,1647.901,1682.33,1647.901z M2816.518,1626.978c-2.355,0-4.733-0.705-6.797-2.173
				c-5.288-3.762-6.526-11.094-2.765-16.381c6.26-8.803,12.284-17.987,17.901-27.298c3.353-5.552,10.572-7.335,16.127-3.989
				c5.554,3.353,7.338,10.573,3.987,16.128c-5.921,9.809-12.271,19.491-18.872,28.773
				C2823.809,1625.261,2820.19,1626.978,2816.518,1626.978z M2858.502,1554.527c-1.655,0-3.338-0.354-4.939-1.095
				c-5.885-2.733-8.439-9.718-5.706-15.604c4.53-9.754,8.828-19.901,12.774-30.159c2.332-6.05,9.125-9.072,15.181-6.745
				c6.053,2.33,9.074,9.125,6.745,15.181c-4.136,10.75-8.641,21.389-13.393,31.621
				C2867.174,1552.006,2862.933,1554.527,2858.502,1554.527z M2887.408,1475.861c-1.052,0-2.121-0.141-3.182-0.439
				c-6.245-1.757-9.886-8.24-8.133-14.486c2.912-10.37,5.598-21.11,7.982-31.916c1.399-6.335,7.666-10.33,14.003-8.941
				c6.334,1.399,10.337,7.666,8.939,14.001c-2.481,11.238-5.275,22.411-8.307,33.207
				C2897.255,1472.472,2892.54,1475.861,2887.408,1475.861z M2904.495,1393.751c-0.551,0-1.108-0.036-1.668-0.118
				c-6.424-0.914-10.889-6.86-9.977-13.284c1.518-10.668,2.833-21.71,3.91-32.82c0.628-6.453,6.345-11.202,12.826-10.557
				c6.457,0.626,11.184,6.368,10.558,12.825c-1.111,11.455-2.468,22.85-4.034,33.863
				C2915.276,1389.52,2910.248,1393.751,2904.495,1393.751z M2911.8,1310.16c-0.151,0-0.302-0.003-0.452-0.01
				c-6.483-0.246-11.54-5.699-11.294-12.182c0.408-10.766,0.639-21.929,0.688-33.188c0.028-6.47,5.281-11.694,11.745-11.694
				c0.018,0,0.034,0,0.052,0c6.488,0.029,11.723,5.309,11.696,11.799c-0.051,11.517-0.287,22.946-0.705,33.974
				C2923.291,1305.188,2918.081,1310.16,2911.8,1310.16z"/>
		</g>
	</g>
</g>
</svg>
