<?xml version="1.0" encoding="utf-8"?>
<!-- Generator: Adobe Illustrator 27.5.0, SVG Export Plug-In . SVG Version: 6.00 Build 0)  -->
<svg version="1.1" xmlns="http://www.w3.org/2000/svg" xmlns:xlink="http://www.w3.org/1999/xlink" x="0px" y="0px"
	 viewBox="0 0 3710 3710" style="enable-background:new 0 0 3710 3710;" xml:space="preserve">
<g id="Background">
	<g>
		<g>
			<rect style="fill:none;" width="3710" height="3710"/>
		</g>
	</g>
</g>
<g id="Illustration">
	<g>
		<path style="fill:none;" d="M1663.151,455.246c-368.5,6.509-938.639,146.619-1102.747,506.676
			c-57.316,125.754-53.436,310.628-45.676,680.375c2.281,108.678,6.063,267.079,32.626,463.618
			c55.178,408.275,92.741,686.214,234.905,848.053c356.219,405.52,1642.967,393.802,2192.445-336.266
			c299.743-398.257,345.856-964.791,71.776-1433.002C2744.724,669.208,2156.485,446.531,1663.151,455.246z"/>
		<g>
			<g>
				<defs>
					<path id="SVGID_1_" d="M1492.609,2298.024c-241.38,36.253-478.571-163.004-469.907-288.992
						c4.507-65.53,73.66-84.12,68.961-152.649c-5.207-75.927-92.669-90.636-198.819-208.549
						c-54.845-60.922-154.299-171.399-130.067-269.737c24.032-97.521,145.744-85.876,177.401-189.372
						c29.934-97.863-67.515-145.467-56.381-290.529c1.036-13.493,14.526-165.177,108.068-203.387
						c95.035-38.82,239.129,53.192,278.775,162.25c36.019,99.082-24.761,183.112,19.145,218.6
						c48.385,39.106,138.044-50.13,191.606-14.729c77.421,51.169-53.427,274.941,44.149,380.599
						c57.378,62.13,128.344,12.605,217.211,74.64c114.697,80.064,137.309,260.859,119.318,380.477
						C1835.998,2069.996,1701.828,2266.602,1492.609,2298.024z"/>
				</defs>
				
					<linearGradient id="SVGID_00000093144832260814187430000006178042882276060548_" gradientUnits="userSpaceOnUse" x1="1398.2196" y1="1495.7223" x2="3555.4207" y2="1517.9043">
					<stop  offset="0.0036" style="stop-color:#E38DDD"/>
					<stop  offset="1" style="stop-color:#9571F6"/>
				</linearGradient>
				
					<use xlink:href="#SVGID_1_"  style="overflow:visible;fill:url(#SVGID_00000093144832260814187430000006178042882276060548_);"/>
				<clipPath id="SVGID_00000170247187561658649260000002710909739987601547_">
					<use xlink:href="#SVGID_1_"  style="overflow:visible;"/>
				</clipPath>
				<g style="clip-path:url(#SVGID_00000170247187561658649260000002710909739987601547_);">
					<path style="fill:#FFFFFF;" d="M1658.63,2321.903l-6.682,3.9c-151.033-258.712-278.863-511.027-379.939-749.941
						c-80.877-191.174-144.908-374.25-190.311-544.142c-77.371-289.515-73.691-442.535-73.646-444.047l7.733,0.236
						c-0.044,1.503-3.65,153.752,73.532,442.355C1160.559,1296.653,1317.158,1736.981,1658.63,2321.903z"/>
					<path style="fill:#FFFFFF;" d="M1090.095,1059.215c-196.221-137.83-276.464-329.01-277.252-330.925l7.155-2.943
						c0.779,1.896,80.247,191.058,274.544,327.536L1090.095,1059.215z"/>
					<path style="fill:#FFFFFF;" d="M1285.809,1610.403c-249.861-76.19-390.166-166.663-463.867-229.146
						c-80.278-68.059-100.885-117.489-101.724-119.559l7.171-2.907c0.201,0.495,21.054,50.185,100.215,117.122
						c73.146,61.848,212.408,151.451,460.461,227.089L1285.809,1610.403z"/>
					<path style="fill:#FFFFFF;" d="M1528.934,2103.27c-455.58-31.614-652.541-215.223-654.477-217.073l5.346-5.593
						c0.487,0.464,51.684,47.905,160.491,98.302c95.812,44.375,258.455,100.634,489.174,116.646L1528.934,2103.27z"/>
					<path style="fill:#FFFFFF;" d="M1314.48,1476.777c-15.632,21.75-32.708,43.014-51.386,63.523l-5.72-5.209
						c122.039-134.01,175.572-301.364,198.984-418.153c25.379-126.607,21.818-222.593,21.778-223.546l7.732-0.317
						c0.039,0.964,3.636,97.876-21.923,225.383C1443.917,1218.361,1401.999,1355.005,1314.48,1476.777z"/>
					<path style="fill:#FFFFFF;" d="M1512.315,1977.571c-8.44,11.743-17.405,23.347-26.945,34.796l-5.943-4.953
						c120.965-145.175,149.838-317.556,152.764-436.607c3.172-129.094-22.6-224.906-22.86-225.86l7.464-2.042
						c0.263,0.964,26.332,97.874,23.132,228.092C1637.2,1681.902,1612.146,1838.669,1512.315,1977.571z"/>
				</g>
			</g>
		</g>
		<g>
			
				<linearGradient id="SVGID_00000088852267023869759020000016219517470070705036_" gradientUnits="userSpaceOnUse" x1="2459.344" y1="4939.5034" x2="1002.5207" y2="6261.5547" gradientTransform="matrix(0 -1 1 0 -3755.802 3738.6064)">
				<stop  offset="0.0036" style="stop-color:#26264F"/>
				<stop  offset="1" style="stop-color:#444B8C"/>
			</linearGradient>
			<path style="fill:url(#SVGID_00000088852267023869759020000016219517470070705036_);" d="M2598.511,2880.115
				c0,40.405-28.668,74.952-64.019,77.015l-1363.67,79.594c-40.5,2.364-73.564-31.063-73.564-74.52V1006.019
				c0-43.459,33.064-77.476,73.564-75.835l1363.67,55.263c35.351,1.433,64.019,35.468,64.019,75.874V2880.115z"/>
			
				<linearGradient id="SVGID_00000037681952740672103530000012715746250324328381_" gradientUnits="userSpaceOnUse" x1="1166.505" y1="1984.6254" x2="2827.957" y2="1938.3312">
				<stop  offset="0" style="stop-color:#444B8C"/>
				<stop  offset="0.9964" style="stop-color:#26264F"/>
			</linearGradient>
			<path style="fill:url(#SVGID_00000037681952740672103530000012715746250324328381_);" d="M2638.548,2880.115
				c0,40.405-28.667,74.952-64.018,77.015l-1363.671,79.594c-40.499,2.364-73.563-31.063-73.563-74.52V1006.019
				c0-43.459,33.064-77.476,73.563-75.835l1363.671,55.263c35.351,1.433,64.018,35.468,64.018,75.874V2880.115z"/>
			
				<linearGradient id="SVGID_00000000210412697971791290000011393474470307820692_" gradientUnits="userSpaceOnUse" x1="1358.8002" y1="6098.1431" x2="2181.8208" y2="5092.229" gradientTransform="matrix(0 -1 1 0 -3755.802 3738.6064)">
				<stop  offset="0" style="stop-color:#444B8C"/>
				<stop  offset="0.9964" style="stop-color:#26264F"/>
			</linearGradient>
			<path style="fill:url(#SVGID_00000000210412697971791290000011393474470307820692_);" d="M1171.604,1007.282v1953.044
				c0,23.228,17.594,41.062,39.256,39.834l1078.516-61.099l285.153-16.154c18.941-1.073,34.269-19.503,34.269-41.167V1060.226
				c0-21.664-15.328-39.821-34.269-40.555l-295.448-11.466L1210.86,966.748C1189.197,965.907,1171.604,984.055,1171.604,1007.282z"
				/>
			<g>
				<defs>
					<path id="XMLID_1_" d="M2587.76,1058.831v1738.666c0,8.061-5.392,14.961-13.327,15.369l-139.326,7.151l-1224.848,62.669
						c-9.065,0.471-15.417-6.179-15.417-14.773V1007.328c0-8.626,6.619-15.369,15.684-15.024l14.13,0.533l1349.972,50.812
						C2582.563,1043.964,2587.76,1050.77,2587.76,1058.831z"/>
				</defs>
				
					<linearGradient id="XMLID_00000010270786737654663560000012561828689056801920_" gradientUnits="userSpaceOnUse" x1="2619.6375" y1="2947.4756" x2="1403.0842" y2="1303.3442">
					<stop  offset="0" style="stop-color:#AA80F9"/>
					<stop  offset="0.9964" style="stop-color:#6165D7"/>
				</linearGradient>
				
					<use xlink:href="#XMLID_1_"  style="overflow:visible;fill:url(#XMLID_00000010270786737654663560000012561828689056801920_);"/>
				<clipPath id="XMLID_00000119089883440676659630000013179828466543919262_">
					<use xlink:href="#XMLID_1_"  style="overflow:visible;"/>
				</clipPath>
				<path style="clip-path:url(#XMLID_00000119089883440676659630000013179828466543919262_);fill:#F4F7FA;" d="M2938.162,1524.752
					l-483.878,16.472c-1.612-307.998-2.941-748.082-0.32-788.924c-0.133,2.078-1.034,13.073-5.682,25.488l-64.106-64.282
					c-6.873,18.516-7.082,34.001-7.639,75.382c-0.316,23.481-0.536,57.184-0.655,100.174c-0.199,71.949-0.125,171.249,0.225,295.153
					c0.592,210.789,1.788,422.799,1.799,424.916l0.364,64.053l166-3.586v461.4l-313.059-6.903l-187.041-433.897l-256.932,5.301
					l345.088-724.081l-54.582-77.303l-379.37,803.218l-163.247,3.368c0.229-72.847,0.606-202.348,0.831-331.31
					c0.199-113.911,0.242-205.108,0.128-271.053c-0.227-131.507-0.644-133.009-2.96-141.345l-30.496,31.187
					c-1.217-4.402-1.484-8.129-1.525-8.832c1.597,27.362,0.884,426.753-0.07,722.056l-170.473,3.517
					c-30.96-212.305-103.346-708.372-105.781-722.078l-56.78,41.768l-0.138-0.814c3.092,19.182,67.073,460.242,109.808,755.37
					l6.152,42.48l357.217-2.928l-221.926,469.871l-435.542-18.017v112.028l464.294,24.98L1728.856,1818l279.75-2.293
					l130.896,306.365l-345.838-7.626v870.262l36.227,4.01v-808.285l338.693,9.709l341.566,799.444l62.879-72.541l-312.208-724.259
					l325.438,9.329V1668.69l351.902-7.603V1524.752z"/>
			</g>
			
				<linearGradient id="SVGID_00000088093925880285024050000001528022851249308070_" gradientUnits="userSpaceOnUse" x1="2221.5139" y1="3137.9902" x2="1047.1332" y2="1550.8536">
				<stop  offset="0" style="stop-color:#AA80F9"/>
				<stop  offset="0.9964" style="stop-color:#6165D7"/>
			</linearGradient>
			<path style="opacity:0.3;fill:url(#SVGID_00000088093925880285024050000001528022851249308070_);" d="M2435.641,2820.018
				l-1225.116,62.669c-9.065,0.471-15.684-6.179-15.684-14.773V1007.328c0-8.626,6.619-15.369,15.684-15.024l14.13,0.533
				c41.936,57.148,128.781,123.016,304.429,179.443c414.028,132.959-55.458,713.226,467.817,899.852
				C2422.911,2224.069,2205.575,2623.104,2435.641,2820.018z"/>
			
				<linearGradient id="SVGID_00000074420570484057334820000000209920763329437882_" gradientUnits="userSpaceOnUse" x1="1927.3842" y1="2798.9338" x2="1899.9113" y2="3008.1504">
				<stop  offset="0" style="stop-color:#444B8C"/>
				<stop  offset="0.9964" style="stop-color:#26264F"/>
			</linearGradient>
			<path style="fill:url(#SVGID_00000074420570484057334820000000209920763329437882_);" d="M2052.969,2918.594l-277.322,15.252
				c-14.827,0.815-26.862-9.465-26.862-22.964v-1.013c0-13.498,12.035-25.074,26.862-25.854l277.322-14.585
				c14.412-0.758,26.081,9.397,26.081,22.68v0.997C2079.05,2906.391,2067.381,2917.801,2052.969,2918.594z"/>
			
				<linearGradient id="SVGID_00000060013540349013175920000010783308010348517801_" gradientUnits="userSpaceOnUse" x1="1908.189" y1="986.3235" x2="1923.7485" y2="1003.4692">
				<stop  offset="0" style="stop-color:#FF9085"/>
				<stop  offset="1" style="stop-color:#FB6FBB"/>
			</linearGradient>
			<path style="fill:url(#SVGID_00000060013540349013175920000010783308010348517801_);" d="M1929.435,994.635
				c0,7.181-6.352,12.76-14.194,12.46c-7.847-0.299-14.213-6.372-14.213-13.562c0-7.191,6.366-12.769,14.213-12.46
				C1923.083,981.382,1929.435,987.454,1929.435,994.635z"/>
		</g>
		<g>
			
				<linearGradient id="SVGID_00000167385766348498031200000002830812168055188670_" gradientUnits="userSpaceOnUse" x1="3599.3113" y1="2970.0127" x2="3619.3035" y2="3224.4561" gradientTransform="matrix(-1 -0.0024 -0.0024 1 4805.8267 3.3687)">
				<stop  offset="0" style="stop-color:#311944"/>
				<stop  offset="1" style="stop-color:#A03976"/>
			</linearGradient>
			<path style="fill:url(#SVGID_00000167385766348498031200000002830812168055188670_);" d="M1160.093,3091.546
				c0,0,80.387,36.769,81.688,42.61c1.301,5.842-51.749-2.082-73.414-1.292c-21.666,0.791-39.472-5.656-37.49-14.827
				c1.985-9.171,9.623-32.233,9.623-32.233L1160.093,3091.546z"/>
			
				<linearGradient id="SVGID_00000076593879643121660030000009947545571411490493_" gradientUnits="userSpaceOnUse" x1="3650.9221" y1="3111.6699" x2="3647.2874" y2="2848.1462" gradientTransform="matrix(-1 -0.0024 -0.0024 1 4805.8267 3.3687)">
				<stop  offset="0" style="stop-color:#FFC444"/>
				<stop  offset="0.9964" style="stop-color:#F36F56"/>
			</linearGradient>
			<path style="fill:url(#SVGID_00000076593879643121660030000009947545571411490493_);" d="M1163.109,3061.871l-4.982,36.221
				c0,0-12.751,4.504-21.297-0.878l-3.556-39.748L1163.109,3061.871z"/>
			
				<linearGradient id="SVGID_00000173840649189016971740000005765681029145963418_" gradientUnits="userSpaceOnUse" x1="3977.1091" y1="2940.3337" x2="3997.1006" y2="3194.7678" gradientTransform="matrix(-1 -0.0024 -0.0024 1 4805.8267 3.3687)">
				<stop  offset="0" style="stop-color:#311944"/>
				<stop  offset="1" style="stop-color:#A03976"/>
			</linearGradient>
			<path style="fill:url(#SVGID_00000173840649189016971740000005765681029145963418_);" d="M784.121,3061.83l-9.396,15.004
				c-2.628,4.196-3.421,9.253-2.177,14.046c3.244,12.504,9.723,36.872,12.559,43.229c3.86,8.659,55.927,13.922,55.927,13.922
				s4.659-6.523-6.135-14.443c-10.792-7.919-17.74-9.177-21.529-20.835c-3.786-11.656-6.254-44.609-6.254-44.609L784.121,3061.83z"
				/>
			
				<linearGradient id="SVGID_00000099636826349908042750000016794032636291095966_" gradientUnits="userSpaceOnUse" x1="3997.1567" y1="3106.8943" x2="3993.522" y2="2843.3635" gradientTransform="matrix(-1 -0.0024 -0.0024 1 4805.8267 3.3687)">
				<stop  offset="0" style="stop-color:#FFC444"/>
				<stop  offset="0.9964" style="stop-color:#F36F56"/>
			</linearGradient>
			<path style="fill:url(#SVGID_00000099636826349908042750000016794032636291095966_);" d="M823.174,3023.735
				c-3.426,2.718-20.274,53.446-20.274,53.446s-5.431,6.91-15.691-3.332c-10.259-10.242-4.644-4.594-4.644-4.594l2.049-49.928
				L823.174,3023.735z"/>
			
				<linearGradient id="SVGID_00000045588419302773818130000012037369057371084187_" gradientUnits="userSpaceOnUse" x1="1017.3073" y1="2679.2893" x2="1211.8217" y2="2679.2893">
				<stop  offset="0" style="stop-color:#FF9085"/>
				<stop  offset="1" style="stop-color:#FB6FBB"/>
			</linearGradient>
			<path style="fill:url(#SVGID_00000045588419302773818130000012037369057371084187_);" d="M1209.135,2334.037
				c3.986,108.091,3.877,225.518-2.644,350.949c-7.34,141.245-21.725,271.774-39.742,390.086c-6.593,0.194-13.52,0.212-20.755-0.008
				c-4.886-0.147-9.62-0.397-14.195-0.723c-9.143-24.564-19.942-56.863-29.59-95.434c-10.142-40.559-16.233-76.932-20.551-111.712
				c-15.203-122.455,2.984-133.092-9.375-223.845c-10.945-80.375-26.777-83.551-45.099-197.673
				c-19.877-123.827-4.814-142.36,2.507-149.051C1060.852,2268.142,1133.841,2287.76,1209.135,2334.037z"/>
			
				<linearGradient id="SVGID_00000170997773951573822210000015522447361123158669_" gradientUnits="userSpaceOnUse" x1="1017.308" y1="2679.2976" x2="1198.7253" y2="2679.2976">
				<stop  offset="0" style="stop-color:#FF9085"/>
				<stop  offset="1" style="stop-color:#FB6FBB"/>
			</linearGradient>
			<path style="opacity:0.4;fill:url(#SVGID_00000170997773951573822210000015522447361123158669_);" d="M1029.691,2296.626
				c29.721-27.168,97.503-10.514,169.035,31.23c-82.62,88.835-91.743,146.57-81.953,184.069
				c11.063,42.382,44.979,54.661,44.738,100.975c-0.296,56.913-51.699,71.866-50.751,132.095
				c0.626,39.826,23.199,39.466,28.411,88.667c6.167,58.215-23.369,78.198-13.921,121.281c4.064,18.535,15.734,42.769,49.076,67.785
				c-2.451,17.677-4.963,35.175-7.578,52.344c-6.59,0.192-13.518,0.213-20.753-0.01c-4.886-0.146-9.622-0.396-14.194-0.723
				c-9.144-24.564-19.944-56.862-29.592-95.434c-10.142-40.56-16.233-76.932-20.551-111.712
				c-15.202-122.455,2.984-133.092-9.375-223.845c-10.945-80.375-26.777-83.553-45.098-197.674
				C1007.307,2321.848,1022.37,2303.315,1029.691,2296.626z"/>
			
				<linearGradient id="SVGID_00000176006269498943525630000014651098625722746253_" gradientUnits="userSpaceOnUse" x1="764.4354" y1="2659.521" x2="1158.0947" y2="2659.521">
				<stop  offset="0" style="stop-color:#FF9085"/>
				<stop  offset="1" style="stop-color:#FB6FBB"/>
			</linearGradient>
			<path style="fill:url(#SVGID_00000176006269498943525630000014651098625722746253_);" d="M1158.095,2332.099
				c-71.204,103.651-148.047,232.679-216.862,387.175c-52.004,116.753-89.78,226.4-117.557,324.135
				c-3.731,1.715-12.531,5.137-23.761,3.625c-15.318-2.064-24.478-11.866-26.872-14.602c-11.041-70.136-9.662-129.51-5.755-172.355
				c2.502-27.431,6.923-73.112,24.548-129.477c19.741-63.136,33.216-66.654,58.933-133.44
				c26.692-69.32,20.308-86.649,45.918-173.417c10.521-35.645,28.117-88.683,57.094-152.109
				C1021.886,2291.787,1089.991,2311.944,1158.095,2332.099z"/>
			
				<linearGradient id="SVGID_00000028310574513922688850000005438315515394217373_" gradientUnits="userSpaceOnUse" x1="3180.0811" y1="1773.1624" x2="2738.1353" y2="2498.7456" gradientTransform="matrix(-1 0 0 1 4011.0259 0)">
				<stop  offset="0" style="stop-color:#AB316D"/>
				<stop  offset="1" style="stop-color:#792D3D"/>
			</linearGradient>
			<path style="fill:url(#SVGID_00000028310574513922688850000005438315515394217373_);" d="M1447.342,2185.85
				c-0.674,25.221-42.127,47.436-75.504,54.25c-78.041,15.928-168.518-40.777-211.462-103.503
				c-8.432-12.317-17.802-27.251-20.061-26.095c-5.105,2.615,41.81,79.699,62.151,167.37c10.406,44.851,7.682,65.856,27.138,95.716
				c4.407,6.764,9.838,13.807,7.93,21.81c-4.78,20.04-50.612,25.244-82.405,28.854c-33.567,3.811-64.867,3.442-95.81,2.99
				c-49.536-0.723-53.437-3.297-64.744,2.254c-34.455,16.909-32.12,57.424-58.048,62.827c-21.773,4.539-43.861-19.777-50.864-27.485
				c-36.402-40.072-34.457-88.384-40.913-137.113c-15.009-113.291-76.559-237.412-136.768-315.986
				c-18.26-23.83-30.959-36.365-31.752-58.512c-2.328-65.012,100.666-136.779,186.419-145.025
				c23.504-2.259,65.593-1.548,105.049,2.172c15.77,1.485,32.559,3.672,50.605,6.83c43.763,7.657,74.229,12.984,105.278,27.19
				c125.201,57.285,97.878,184.8,233.388,272.966C1403.564,2147.673,1448.048,2159.438,1447.342,2185.85z"/>
			
				<linearGradient id="SVGID_00000181777982591641968730000006574287086923370414_" gradientUnits="userSpaceOnUse" x1="3090.4011" y1="1763.9199" x2="3048.7766" y2="2131.1069" gradientTransform="matrix(-1 0 0 1 4011.0259 0)">
				<stop  offset="0" style="stop-color:#FFC444"/>
				<stop  offset="0.9964" style="stop-color:#F36F56"/>
			</linearGradient>
			<path style="fill:url(#SVGID_00000181777982591641968730000006574287086923370414_);" d="M934.358,1740.759
				c0,0-5.377,30.009-17.755,51.37c-11.187,19.306-57.438,26.227-67.074,29.588c-9.636,3.359,14.537,20.141,40.245,26.225
				c25.705,6.086,100.901,10.064,115.627,1.97c14.727-8.093-9.564-10.567-27.253-19.867c-17.69-9.3-23.606-47.103-18.128-63.173
				C965.497,1750.8,934.358,1740.759,934.358,1740.759z"/>
			<g>
				
					<linearGradient id="SVGID_00000120516842599450258110000017022135277104982952_" gradientUnits="userSpaceOnUse" x1="4953.0552" y1="2524.354" x2="4886.2021" y2="2354.5601" gradientTransform="matrix(-0.9989 0.0475 0.0475 0.9989 5737.0234 -907.3022)">
					<stop  offset="0" style="stop-color:#444B8C"/>
					<stop  offset="0.9964" style="stop-color:#3E4177"/>
				</linearGradient>
				<path style="fill:url(#SVGID_00000120516842599450258110000017022135277104982952_);" d="M983.23,1732.074
					c18.655-13.332,23.821-49.385,13.46-57.479c-2.962-2.313-5.791-1.251-47.891,15.636c-20.906,8.388-31.19,12.853-34.576,22.086
					c-2.068,5.636-1.734,13.25,0.55,19.249c1.177,3.087,3.468,6.931,8.564,14.266c4.523,6.509,4.218,6.289,5.605,8.181
					c3.331,4.544,9.755,12.195,21.527,21.064c0.655-3.318,1.689-7.436,3.423-11.927c0.667-1.728,3.356-8.482,7.62-14.171
					C968.851,1739.188,977.176,1736.402,983.23,1732.074z"/>
				
					<linearGradient id="SVGID_00000166652567266048364110000010954621016805373834_" gradientUnits="userSpaceOnUse" x1="3052.9382" y1="1721.658" x2="3085.6431" y2="1992.2166" gradientTransform="matrix(-1 0 0 1 4011.0259 0)">
					<stop  offset="0" style="stop-color:#FFC444"/>
					<stop  offset="0.9964" style="stop-color:#F36F56"/>
				</linearGradient>
				<path style="fill:url(#SVGID_00000166652567266048364110000010954621016805373834_);" d="M935.421,1766.362
					c0,0,12.206,18.182,34.813,15.716c20.242-2.21,21.223-47.862,7.834-56.956c-4.466-3.034-13.188-3.992-20.146-1.71
					c-4.11,1.348-5.442,3.14-12.2,5.21c-6.233,1.911-8.045,1.29-9.878,2.976c-2.293,2.107-3.821,7.095,0.736,20.231
					c-4.045-3.753-8.76-5.054-11.985-3.355c-0.514,0.271-1.867,1.28-2.588,2.751
					C919.398,1756.549,924.435,1762.982,935.421,1766.362z"/>
			</g>
			
				<linearGradient id="SVGID_00000043436072905781672760000005453103308224523407_" gradientUnits="userSpaceOnUse" x1="2575.9463" y1="2147.9685" x2="2891.502" y2="2147.9685" gradientTransform="matrix(-1 0 0 1 4011.0259 0)">
				<stop  offset="0" style="stop-color:#AB316D"/>
				<stop  offset="1" style="stop-color:#792D3D"/>
			</linearGradient>
			<path style="fill:url(#SVGID_00000043436072905781672760000005453103308224523407_);" d="M1337.872,2181.973
				c-56.583-12.744-79.129-12.333-107.11-34.877c-46.586-37.536-53.583-94.666-80.656-93.968
				c-12.793,0.33-23.187,13.396-30.583,26.19c6.815,10.674,13.631,21.348,20.446,32.021c0.028-0.406,0.118-0.72,0.345-0.836
				c2.259-1.156,11.628,13.778,20.061,26.095c42.944,62.727,133.422,119.431,211.462,103.503
				c22.377-4.568,48.327-16.075,63.242-30.752C1396.563,2196.337,1363.667,2187.783,1337.872,2181.973z"/>
			
				<linearGradient id="SVGID_00000114059987601968731800000008950314361722524800_" gradientUnits="userSpaceOnUse" x1="6538.4375" y1="684.6924" x2="6609.4092" y2="684.6924" gradientTransform="matrix(-0.8553 0.5182 0.5182 0.8553 6739.7451 -1761.0112)">
				<stop  offset="0" style="stop-color:#FFC444"/>
				<stop  offset="0.9964" style="stop-color:#F36F56"/>
			</linearGradient>
			<path style="fill:url(#SVGID_00000114059987601968731800000008950314361722524800_);" d="M1430.027,2230.625
				c0,0,31.928-3.176,50.953-11.315c19.025-8.141,31.315,3.548,29.567,11.641c-1.748,8.089-33.048,19.354-45.553,19.759
				C1452.49,2251.114,1430.027,2230.625,1430.027,2230.625z"/>
			
				<linearGradient id="SVGID_00000181796572226671327490000013912916689926715321_" gradientUnits="userSpaceOnUse" x1="3419.1956" y1="1918.8055" x2="2977.249" y2="2644.3899" gradientTransform="matrix(-1 0 0 1 4011.0259 0)">
				<stop  offset="0" style="stop-color:#AB316D"/>
				<stop  offset="1" style="stop-color:#792D3D"/>
			</linearGradient>
			<path style="fill:url(#SVGID_00000181796572226671327490000013912916689926715321_);" d="M742.393,2399.505
				c-34.28,3.059-111.442,4.454-166.017-46.036c-90.856-84.05-45.784-244.041-14.157-312.847
				c36.259-78.89,93.97-123.047,129.041-149.883c43.511-33.293,70.069-53.614,102.021-49.064
				c82.634,11.768,139.863,181.129,94.5,229.618c-14.851,15.874-29.557,6.885-72.536,20.573
				c-13.996,4.458-118.459,37.729-136.646,114.668c-12.73,53.849,19.68,116.903,77.364,159.251
				C751.438,2377.024,746.916,2388.265,742.393,2399.505z"/>
			
				<linearGradient id="SVGID_00000056396559208020362010000009745848559155108749_" gradientUnits="userSpaceOnUse" x1="2776.5857" y1="2248.0566" x2="3423.99" y2="2248.0566" gradientTransform="matrix(-1 0 0 1 4011.0259 0)">
				<stop  offset="0" style="stop-color:#AB316D"/>
				<stop  offset="1" style="stop-color:#792D3D"/>
			</linearGradient>
			<path style="fill:url(#SVGID_00000056396559208020362010000009745848559155108749_);" d="M1126.623,2371.608
				c-38.808-24.525-44.55-49.382-88.007-66.177c-56.456-21.82-83.585,5.897-111.575-16.481
				c-33.31-26.632-3.823-73.029-28.75-153.542c-4.231-13.666-36.366-117.464-110.1-130.689
				c-34.383-6.167-79.796,7.005-97.295,36.143c-13.695,22.802-0.937,39.801-17.588,64.975c-16.64,25.158-36.54,19.004-57.752,39.986
				c-33.681,33.317-38.843,103.573-8.435,143.305c14.183,18.532,32.613,25.86,67.293,39.65
				c21.182,8.422,40.875,13.661,57.833,16.988c-42.465-40.758-64.502-93.32-53.648-139.232
				c11.336-47.96,56.195-78.948,91.771-96.569c35.599,66.995,64.694,144.626,74.382,217.76
				c6.456,48.729,4.511,97.042,40.913,137.113c7.003,7.708,29.09,32.024,50.864,27.485c25.928-5.403,23.593-45.918,58.048-62.827
				c11.307-5.551,15.208-2.977,64.744-2.254c30.944,0.452,62.244,0.821,95.81-2.99c28.273-3.211,67.579-7.71,79.31-22.757
				C1183.398,2400.106,1149.332,2385.959,1126.623,2371.608z"/>
			<g>
				<path style="fill:#D8DEE8;" d="M764.899,2426.447l-3.993-11.747c-6.367-18.73,4.101-38.705,23.368-44.574l755.409-230.112
					l23.018,78.018L811.107,2449.53C791.941,2455.434,771.246,2445.117,764.899,2426.447z"/>
				<path style="fill:#BDC2C9;" d="M2009.208,2452.65c-216.413,70.141-448.334-52.502-515.962-279.843
					c-69.255-232.807,61.244-479.777,289.181-545.406c223.83-64.447,450.158,73.064,507.915,301.241
					C2346.786,2151.63,2221.881,2383.72,2009.208,2452.65z M1991.743,2389.094c179.579-57.698,284.841-253.563,236.637-441.471
					c-49.146-191.583-239.605-306.055-427.072-251.518c-190.342,55.373-299.55,261.73-242.313,456.562
					C1615.103,2343.66,1809.507,2447.646,1991.743,2389.094z"/>
				<path style="opacity:0.6;fill:#D8DEE8;" d="M1539.682,2140.014l-96.318,29.34c-6.609,30.719-19.458,48.32-32.391,59.039
					c-48.651,40.33-113.615-3.655-204.249,43.635c-45.48,23.731-36.839,38.832-79.469,55.39
					c-70.478,27.374-102.739-10.545-165.112,14.371c-63.089,25.202-69.309,79.666-105.089,77.711
					c-15.306-0.836-35.01-11.971-56.982-54.188l-15.8,4.813c-19.267,5.869-29.735,25.843-23.368,44.575l3.993,11.746
					c6.348,18.669,27.042,28.987,46.209,23.083l751.593-231.498L1539.682,2140.014z"/>
				<path style="fill:#D8DEE8;" d="M2023.839,2472.218c-216.413,70.142-448.333-52.501-515.962-279.843
					c-69.254-232.807,61.244-479.776,289.182-545.406c223.83-64.446,450.159,73.065,507.915,301.242
					C2361.417,2171.198,2236.512,2403.289,2023.839,2472.218z M2006.374,2408.662c179.579-57.698,284.841-253.563,236.638-441.47
					c-49.147-191.583-239.606-306.054-427.073-251.518c-190.342,55.373-299.55,261.73-242.313,456.562
					C1629.735,2363.229,1824.138,2467.214,2006.374,2408.662z"/>
				<path style="fill:#D8DEE8;" d="M2017.676,2449.789c-204.347,66.028-422.983-50.059-486.506-264.547
					c-64.962-219.346,57.989-451.906,272.582-513.92c210.947-60.961,424.606,68.358,479.345,283.591
					C2336.66,2165.521,2218.686,2384.839,2017.676,2449.789z M2006.374,2408.662c179.579-57.698,284.841-253.563,236.638-441.47
					c-49.147-191.583-239.606-306.054-427.073-251.518c-190.342,55.373-299.55,261.73-242.313,456.562
					C1629.735,2363.229,1824.138,2467.214,2006.374,2408.662z"/>
			</g>
			
				<linearGradient id="SVGID_00000058555830026816770470000016869213948349821577_" gradientUnits="userSpaceOnUse" x1="-5797.0078" y1="522.3559" x2="-5781.2988" y2="433.435" gradientTransform="matrix(0.8553 -0.5182 0.5182 0.8553 5490.7197 -1003.974)">
				<stop  offset="0" style="stop-color:#FFC444"/>
				<stop  offset="0.9964" style="stop-color:#F36F56"/>
			</linearGradient>
			<path style="fill:url(#SVGID_00000058555830026816770470000016869213948349821577_);" d="M745.303,2392.273l7.634-18.974
				c0,0,12.463,0.76,22.69-6.574c5.573-3.996,15.462-5.186,18.337-4.388c2.874,0.797,13.729,0.322,1.356,6.226
				c-12.372,5.902-12.275,10.287-7.117,15.132c5.157,4.844,24.781,15.266,31.844,15.767c7.064,0.502-5.708,11.427-12.831,12.823
				c-7.124,1.393-18.805,3.158-33.257-5.35C768.687,2403.832,745.303,2392.273,745.303,2392.273z"/>
		</g>
		<g>
			
				<linearGradient id="SVGID_00000054947479043431952840000016142417258314743735_" gradientUnits="userSpaceOnUse" x1="1506.8925" y1="1323.8782" x2="1963.6372" y2="1374.6277">
				<stop  offset="0" style="stop-color:#893976"/>
				<stop  offset="1" style="stop-color:#311944"/>
			</linearGradient>
			<path style="fill:url(#SVGID_00000054947479043431952840000016142417258314743735_);" d="M2388.777,1119.859
				c0,234.798-298.835,798.569-422.731,995.112c-21.062,33.411-107.692,27.2-128.754-6.211
				c-123.896-196.543-461.802-754.103-461.802-988.901c0-287.506,226.832-520.576,506.644-520.576
				S2388.777,832.353,2388.777,1119.859z"/>
			
				<linearGradient id="SVGID_00000006679598328227323250000004152976604706573227_" gradientUnits="userSpaceOnUse" x1="2214.458" y1="545.979" x2="1285.6165" y2="2480.0015">
				<stop  offset="0" style="stop-color:#FF9085"/>
				<stop  offset="1" style="stop-color:#FB6FBB"/>
			</linearGradient>
			<path style="fill:url(#SVGID_00000006679598328227323250000004152976604706573227_);" d="M2443.779,1119.859
				c0,234.798-337.906,792.358-461.803,988.901c-21.061,33.411-68.62,33.411-89.682,0
				c-123.897-196.543-461.802-754.103-461.802-988.901c0-287.506,226.832-520.576,506.644-520.576
				S2443.779,832.353,2443.779,1119.859z"/>
			<ellipse style="opacity:0.7;fill:#FFFFFF;" cx="1937.135" cy="1071.833" rx="279.048" ry="286.722"/>
			<ellipse style="opacity:0.7;fill:#FFFFFF;" cx="1937.135" cy="1071.833" rx="262.43" ry="269.647"/>
		</g>
		<g>
			<g>
				<defs>
					<path id="SVGID_00000054262507599223350300000003883693666659802499_" d="M2800.746,2945.925
						c183.518-5.707,332.192-185.136,308.799-277.205c-12.168-47.887-65.85-52.324-71.609-103.672
						c-6.381-56.891,56.363-79.565,119.024-181.133c32.376-52.478,91.086-147.64,59.898-217.148
						c-30.929-68.93-119.432-43.907-156.809-116.232c-35.343-68.388,30.356-116.752,2.565-222.603
						c-2.585-9.846-33.013-120.28-107.389-135.949c-75.562-15.919-169.796,71.596-184.436,157.647
						c-13.301,78.18,43.005,132.173,15.296,164.354c-30.536,35.462-108.915-18.491-143.782,14.926
						c-50.398,48.303,76.597,196.267,18.628,287.61c-34.088,53.713-93.281,26.627-150.686,84.514
						c-74.089,74.71-66.454,211.555-37.016,297.652C2515.888,2823.459,2641.68,2950.871,2800.746,2945.925z"/>
				</defs>
				
					<linearGradient id="SVGID_00000033355196234465436420000007394956753678729350_" gradientUnits="userSpaceOnUse" x1="2897.5354" y1="2318.4263" x2="4390.0894" y2="2333.7739">
					<stop  offset="0.0036" style="stop-color:#E38DDD"/>
					<stop  offset="1" style="stop-color:#9571F6"/>
				</linearGradient>
				
					<use xlink:href="#SVGID_00000054262507599223350300000003883693666659802499_"  style="overflow:visible;fill:url(#SVGID_00000033355196234465436420000007394956753678729350_);"/>
				<clipPath id="SVGID_00000156580479635178289100000009392683133969109389_">
					<use xlink:href="#SVGID_00000054262507599223350300000003883693666659802499_"  style="overflow:visible;"/>
				</clipPath>
				<g style="clip-path:url(#SVGID_00000156580479635178289100000009392683133969109389_);">
					<path style="fill:#FFFFFF;" d="M2681.102,2985.974l5.47,1.986c76.899-211.816,137.49-415.77,180.088-606.2
						c34.085-152.378,56.794-296.493,67.494-428.34c18.235-224.682-5.114-337.428-5.351-338.54l-5.691,1.217
						c0.235,1.107,23.425,113.291,5.208,337.273C2911.504,2160.111,2854.965,2507.08,2681.102,2985.974z"/>
					<path style="fill:#FFFFFF;" d="M2931.646,1974.899c126.634-128.448,160.249-280.745,160.573-282.269l-5.691-1.214
						c-0.321,1.508-33.634,152.208-159.027,279.396L2931.646,1974.899z"/>
					<path style="fill:#FFFFFF;" d="M2861.104,2409.181c174.638-90.062,266.275-175.928,312.396-232.102
						c50.235-61.187,58.823-100.545,59.165-102.19l-5.698-1.185c-0.082,0.393-8.817,39.977-58.377,100.183
						c-45.795,55.63-136.778,140.711-310.152,230.121L2861.104,2409.181z"/>
					<path style="fill:#FFFFFF;" d="M2747.613,2806.694c332.888-84.802,453.899-247.229,455.082-248.859l-4.71-3.418
						c-0.297,0.409-31.791,42.418-105.521,94.38c-64.924,45.754-177.703,109.31-346.287,152.258L2747.613,2806.694z"/>
					<path style="fill:#FFFFFF;" d="M2821.875,2314.157c14.5,13.989,30.003,27.423,46.59,40.084l3.531-4.626
						c-108.377-82.724-170.551-199.357-203.619-282.631c-35.847-90.273-46.149-161.787-46.248-162.498l-5.765,0.807
						c0.101,0.719,10.501,72.923,46.603,163.838C2691.254,2140.364,2740.693,2235.837,2821.875,2314.157z"/>
					<path style="fill:#FFFFFF;" d="M2742.969,2711.432c7.829,7.553,16.028,14.932,24.631,22.118l3.73-4.467
						c-109.087-91.132-153.689-214.809-171.901-302.517c-19.748-95.108-13.59-169.487-13.526-170.227l-5.799-0.505
						c-0.065,0.749-6.295,75.98,13.626,171.916C2610.697,2509.457,2650.367,2622.094,2742.969,2711.432z"/>
				</g>
			</g>
		</g>
		<g>
			<g>
				<g>
					<g>
						
							<linearGradient id="SVGID_00000147921395968923739520000016913707146031975828_" gradientUnits="userSpaceOnUse" x1="3111.9302" y1="2872.1809" x2="2611.9434" y2="2445.6692">
							<stop  offset="0" style="stop-color:#444B8C"/>
							<stop  offset="0.9964" style="stop-color:#26264F"/>
						</linearGradient>
						<path style="fill:url(#SVGID_00000147921395968923739520000016913707146031975828_);" d="M2988.691,1961.057V3029.84
							c0,15.983-13.428,19.856-28.65,20.855l-518.916,44.067l-7.819,0.512c-16.041,1.051-29.183-11.539-29.183-27.979V1967.976
							c0-16.44,13.143-30.027,29.183-30.194l10.612-0.11l520.856,18.572C2979.996,1956.088,2988.691,1945.074,2988.691,1961.057z"/>
						
							<linearGradient id="SVGID_00000159446356155950522110000015718299576465637528_" gradientUnits="userSpaceOnUse" x1="-1304.1542" y1="4081.5115" x2="607.0825" y2="4152.6079" gradientTransform="matrix(0 -1 1 0 -1389.0323 1734.3226)">
							<stop  offset="0" style="stop-color:#444B8C"/>
							<stop  offset="0.9964" style="stop-color:#26264F"/>
						</linearGradient>
						<path style="fill:url(#SVGID_00000159446356155950522110000015718299576465637528_);" d="M3004.955,1960.352v1068.959
							c0,15.986-12.442,29.88-27.669,30.877l-527.899,34.571c-16.046,1.051-29.193-11.541-29.193-27.983v-1099.5
							c0-16.442,13.147-30.032,29.193-30.199l527.899-5.501C2992.513,1931.417,3004.955,1944.366,3004.955,1960.352z"/>
						<path style="fill:#D8DEE8;" d="M2987.77,2019.852v990.091c0,14.922-11.624,27.879-25.848,28.795l-496.397,31.964
							c-14.942,0.962-27.183-10.786-27.183-26.108V2027.948c0-15.322,12.241-28.023,27.183-28.223l496.397-6.657
							C2976.147,1992.877,2987.77,2004.93,2987.77,2019.852z"/>
					</g>
					<path style="fill:#DE8BDF;" d="M2726.496,1966.902c0,5.617-4.388,10.225-9.805,10.292c-5.419,0.068-9.814-4.435-9.814-10.057
						c0-5.622,4.395-10.23,9.814-10.292C2722.108,1956.782,2726.496,1961.285,2726.496,1966.902z"/>
				</g>
				<g>
					<path style="fill:#F4F7FA;" d="M2910.367,2623.956l-396.437,19.949c-4.993,0.251-9.042-3.683-9.042-8.788v-88.321
						c0-5.105,4.049-9.424,9.042-9.646l396.437-17.69c4.781-0.213,8.655,3.661,8.655,8.652v86.368
						C2919.022,2619.473,2915.148,2623.715,2910.367,2623.956z"/>
					<path style="fill:#F4F7FA;" d="M2909.463,2787.347l-394.589,23.373c-5.513,0.327-9.985-3.979-9.985-9.616v-86.39
						c0-5.638,4.472-10.448,9.985-10.743l394.589-21.123c5.281-0.283,9.559,3.958,9.559,9.471v84.48
						C2919.022,2782.312,2914.743,2787.034,2909.463,2787.347z"/>
					<path style="fill:#FFFFFF;" d="M2870.192,2256.088c0,88.98-69.483,163.82-155.923,167.188
						c-87.254,3.399-158.592-67.19-158.592-157.694c0-90.504,71.339-165.4,158.592-167.268
						C2800.709,2096.463,2870.192,2167.107,2870.192,2256.088z"/>
					<path style="fill:#FFFFFF;" d="M2714.244,2427.22c-43.296,1.678-84.046-14.209-114.765-44.722
						c-30.738-30.532-47.657-71.992-47.657-116.76c0-45.146,17.166-87.895,48.351-120.387
						c30.664-31.95,71.195-50.071,114.175-50.983c42.774-0.917,82.931,15.375,113.058,45.891
						c30.088,30.477,46.667,71.562,46.667,115.672c0,44.125-16.587,86.229-46.693,118.54
						c-30.146,32.354-70.32,51.083-113.109,52.748C2714.262,2427.22,2714.252,2427.22,2714.244,2427.22z M2711.036,2102.36
						c-39.702,1.67-77.038,18.781-105.461,48.393c-29.696,30.937-46.042,71.657-46.042,114.673
						c0,42.685,16.131,82.213,45.436,111.318c29.258,29.059,68.064,44.188,109.276,42.589c0.01,0,0.014,0,0.024-0.001
						c83.779-3.267,152.044-76.431,152.044-163.087c0-86.7-68.3-155.777-152.122-153.985
						C2713.14,2102.283,2712.083,2102.316,2711.036,2102.36z"/>
				</g>
				<path style="opacity:0.4;fill:#D8DEE8;" d="M3004.954,1959.741c0-15.863-12.378-28.325-27.968-28.163l-288.582,3.007
					c106.845,110.794,130.901,206.673,133.648,272.781c7.841,188.721-151.819,277.18-122.171,482.513
					c8.131,56.312,26.117,91.23,33.144,188.792c5.991,83.187-0.271,152.414-6.51,197.938l250.771-16.423
					c15.227-0.997,27.669-14.891,27.669-30.877V1959.741z"/>
			</g>
			
				<linearGradient id="SVGID_00000058554975958201397760000007719172181063581837_" gradientUnits="userSpaceOnUse" x1="2650.5598" y1="2268.7239" x2="2782.8142" y2="2268.7239">
				<stop  offset="0" style="stop-color:#AA80F9"/>
				<stop  offset="0.9964" style="stop-color:#6165D7"/>
			</linearGradient>
			<path style="fill:url(#SVGID_00000058554975958201397760000007719172181063581837_);" d="M2650.56,2236.215
				c0,23.675,27.564,79.981,47.032,116.809c8.109,15.339,29.475,16.372,37.618,1.778c19.628-35.176,47.604-89.521,47.604-113.42
				c0-36.88-29.823-67.8-66.438-69.057C2679.95,2171.074,2650.56,2199.681,2650.56,2236.215z M2680.961,2237.403
				c0-19.658,15.833-35.015,35.414-34.3c19.635,0.717,35.594,17.317,35.594,37.075c0,19.758-15.958,35.11-35.594,34.293
				C2696.795,2273.656,2680.961,2257.061,2680.961,2237.403z"/>
		</g>
		<g>
			
				<linearGradient id="SVGID_00000152238124829914094590000006460421183220706958_" gradientUnits="userSpaceOnUse" x1="1473.2047" y1="1847.3108" x2="1914.8678" y2="1242.0101" gradientTransform="matrix(-1 0 0 1 4227.7856 0)">
				<stop  offset="0" style="stop-color:#FFC444"/>
				<stop  offset="0.9964" style="stop-color:#F36F56"/>
			</linearGradient>
			<path style="fill:url(#SVGID_00000152238124829914094590000006460421183220706958_);" d="M2107.723,1565.398v1.354
				c11.844-16.175,33.062-38.645,45.768-51.656c0.237-0.575,0.635-1.151,0.872-1.726c7.089-17.005,16.654-35.414,29.14-53.789
				c12.402-18.426,28.165-36.564,46.54-53.264c2.2-2.166,4.743-4.078,7.095-6.125c1.201-0.998,2.414-2.03,3.632-3.028l1.782-1.523
				c0.626-0.508,1.272-0.964,1.898-1.455c2.521-1.912,5.043-3.841,7.581-5.787l1.896-1.455l1.996-1.354
				c1.32-0.914,2.64-1.828,3.96-2.724c5.211-3.773,10.829-7.039,16.31-10.49c2.792-1.675,5.719-3.215,8.562-4.805
				c1.404-0.796,2.843-1.608,4.281-2.386c1.472-0.727,2.961-1.472,4.416-2.2c23.485-11.861,49.102-20.439,75.378-25.16
				c3.282-0.542,6.565-1.083,9.882-1.625c3.299-0.457,6.649-0.744,9.932-1.134l4.974-0.558l4.992-0.271l4.991-0.304
				c1.658-0.085,3.299-0.254,4.975-0.22c3.316-0.017,6.632-0.051,9.966-0.068c0.812,0,1.692-0.051,2.453,0l2.217,0.118l4.433,0.237
				l4.399,0.22c0.389,0.017,0.659,0.017,1.167,0.051l4.518,0.339l6.04,0.423l4.518,0.338l0.761,0.051l0.271,0.017
				c0,0.017,1.573,0-1.066,0.051l9.763,1.438c1.607,0.254,3.231,0.406,4.839,0.761l4.788,0.965l4.789,0.947l2.386,0.474
				c0.796,0.152,1.574,0.389,2.352,0.575c3.131,0.795,6.26,1.574,9.374,2.386c1.573,0.339,3.096,0.88,4.619,1.337l4.568,1.438
				l4.569,1.371l4.467,1.641c2.978,1.117,5.956,2.098,8.849,3.282c2.876,1.218,5.769,2.436,8.629,3.671
				c22.757,10.118,43.213,23.197,60.623,38.137l3.283,2.741l3.114,2.927c2.064,1.929,4.196,3.773,6.159,5.752
				c0.084,0.068,0.152,0.169,0.236,0.237c3.824,3.959,7.699,7.682,11.133,11.776c0.914,0.998,1.811,2.013,2.69,3.029l1.354,1.489
				l1.252,1.59c1.676,2.064,3.333,4.146,4.992,6.193c0.406,0.507,0.846,0.998,1.252,1.523l1.134,1.59
				c0.778,1.066,1.539,2.132,2.301,3.164c1.489,2.132,3.113,4.094,4.45,6.294c11.303,16.92,19.915,33.84,25.769,49.981
				c5.905,16.108,9.407,31.217,11.421,44.567c0.22,1.675,0.44,3.316,0.66,4.941c0.186,1.607,0.507,3.181,0.575,4.754
				c0.254,3.147,0.508,6.142,0.762,9.001c0.169,2.911,0.169,5.702,0.287,8.325c0.051,1.32,0.135,2.606,0.152,3.841
				c-0.051,1.269-0.084,2.504-0.102,3.688c-0.033,2.385-0.068,4.636-0.101,6.734c0.017,0.592-0.085,0.897-0.119,1.303
				c-0.05,0.389-0.102,0.778-0.152,1.15c-0.068,0.744-0.169,0.643-0.237,1.32c-0.051,0.575-0.118,0.846-0.169,0.846h-111.384
				l67.68,75.04l157.338,172.075l225.035-247.115H2885.31c-0.169,0-0.355-2.03-0.541-3.621c-0.457-3.435-0.948-6.785-1.489-10.863
				c-0.305-2.03-0.575-3.925-0.897-6.108c-0.168-1.066-0.321-2.081-0.49-3.198c-0.152-1.1-0.304-2.284-0.524-3.249
				c-0.83-4.094-1.692-8.409-2.606-13.011c-0.491-2.284-0.965-4.619-1.472-7.022c-0.542-2.402-1.185-4.839-1.828-7.343
				c-1.285-4.992-2.538-10.237-4.094-15.634c-1.658-5.364-3.384-10.93-5.16-16.717c-0.864-2.91-1.997-5.77-3.046-8.731
				c-1.066-2.91-2.165-5.905-3.282-8.951c-9.188-24.111-21.725-50.37-38.493-76.766c-16.7-26.412-37.968-52.722-63.212-77.121
				c-3.063-3.13-6.447-5.99-9.712-8.985c-1.658-1.472-3.299-2.961-4.958-4.45l-2.521-2.233l-2.572-2.132
				c-3.468-2.826-6.971-5.685-10.457-8.545l-2.64-2.132l-2.74-2.03c-1.845-1.371-3.673-2.724-5.516-4.078
				c-7.225-5.533-14.991-10.524-22.706-15.668c-3.891-2.504-7.918-4.839-11.928-7.259c-1.979-1.184-3.994-2.369-6.007-3.587
				c-2.064-1.117-4.128-2.234-6.192-3.35c-32.926-18.036-69.304-31.725-107.07-39.914c-4.721-0.931-9.475-1.878-14.212-2.809
				c-4.738-0.88-9.56-1.489-14.332-2.217l-7.173-1.015l-7.225-0.711l-7.208-0.694c-2.403-0.22-4.789-0.491-7.208-0.575
				c-4.805-0.22-9.627-0.795-14.45-1.015c-1.184-0.051-2.402-0.508-3.604-0.508h-3.621l-7.191,0.406l-7.191,0.237
				c-2.402,0-4.805,0.322-7.191,0.44l-14.298,0.863c-3.249,0.051-1.116,0.085-1.946,0.102l-0.372,0.051l-0.762,0.085l-1.489,0.203
				l-3.011,0.372l-5.99,0.744l-3.012,0.372l-1.489,0.186l-1.844,0.254l-7.581,1.117l-7.579,1.151l-3.757,0.592
				c-1.235,0.203-2.334,0.474-3.519,0.711c-4.619,0.981-9.238,1.98-13.857,2.944c-2.301,0.457-4.569,1.117-6.836,1.709l-6.819,1.811
				l-6.768,1.81l-6.683,2.115c-4.433,1.438-8.883,2.792-13.231,4.348c-4.349,1.624-8.663,3.249-12.977,4.873
				c-34.23,13.604-65.464,31.759-92.316,52.892c-1.692,1.303-3.367,2.623-5.041,3.925c-1.642,1.354-3.249,2.724-4.856,4.112
				c-3.215,2.741-6.447,5.381-9.543,8.189c-6.108,5.736-12.199,11.235-17.766,17.191c-1.421,1.455-2.809,2.927-4.23,4.365
				l-2.081,2.166l-1.997,2.25c-2.656,3.012-5.278,6.007-7.867,8.968l-1.946,2.234l-1.861,2.301c-1.201,1.54-2.436,3.063-3.637,4.585
				c-2.403,3.063-4.924,5.973-7.089,9.137c-12.267,16.564-22.656,33.349-31.251,49.897c-4.196,8.037-7.935,16.04-11.235,23.941
				c-10.202,24.128-16.751,47.088-20.879,67.544c-0.457,2.572-0.948,5.093-1.405,7.58c-0.439,2.47-0.964,4.89-1.251,7.309
				c-0.643,4.823-1.286,9.442-1.878,13.892c-0.508,4.467-0.778,8.765-1.151,12.842c-0.152,2.03-0.355,4.01-0.474,5.973
				c-0.068,1.929-0.474,3.824-0.558,5.685C2108.315,1558.596,2107.723,1562.132,2107.723,1565.398z"/>
			
				<linearGradient id="SVGID_00000145761944993675671070000010086156534958722966_" gradientUnits="userSpaceOnUse" x1="1829.7064" y1="1549.7377" x2="1989.4183" y2="1330.8519" gradientTransform="matrix(-1 0 0 1 4227.7856 0)">
				<stop  offset="0" style="stop-color:#AB316D"/>
				<stop  offset="1" style="stop-color:#792D3D"/>
			</linearGradient>
			<path style="fill:url(#SVGID_00000145761944993675671070000010086156534958722966_);" d="M2107.723,1565.398v1.354
				c11.844-16.175,33.062-38.645,45.768-51.656c0.237-0.575,0.635-1.151,0.872-1.726c7.089-17.005,16.654-35.414,29.14-53.789
				c12.402-18.426,28.165-36.564,46.54-53.264c2.2-2.166,4.743-4.078,7.095-6.125c1.201-0.998,2.414-2.03,3.632-3.028l1.782-1.523
				c0.626-0.508,1.272-0.964,1.898-1.455c2.521-1.912,5.043-3.841,7.581-5.787l1.896-1.455l1.996-1.354
				c1.32-0.914,2.64-1.828,3.96-2.724c5.211-3.773,10.829-7.039,16.31-10.49c2.792-1.675,5.719-3.215,8.562-4.805
				c1.404-0.796,2.843-1.608,4.281-2.386c1.472-0.727,2.961-1.472,4.416-2.2c23.485-11.861,49.102-20.439,75.378-25.16
				c3.282-0.542,6.565-1.083,9.882-1.625c3.299-0.457,6.649-0.744,9.932-1.134l4.974-0.558l4.992-0.271l4.991-0.304
				c1.658-0.085,3.299-0.254,4.975-0.22c3.316-0.017,6.632-0.051,9.966-0.068c0.812,0,1.692-0.051,2.453,0l2.217,0.118l4.433,0.237
				l4.399,0.22c0.389,0.017,0.659,0.017,1.167,0.051l4.518,0.339l6.04,0.423l4.518,0.338l0.761,0.051l0.271,0.017
				c0,0.017,1.573,0-1.066,0.051l9.763,1.438c1.607,0.254,3.231,0.406,4.839,0.761l4.788,0.965l4.789,0.947l2.386,0.474
				c0.796,0.152,1.574,0.389,2.352,0.575c3.131,0.795,6.26,1.574,9.374,2.386c1.573,0.339,3.096,0.88,4.619,1.337l4.568,1.438
				l4.569,1.371l4.467,1.641c2.978,1.117,5.956,2.098,8.849,3.282c2.876,1.218,5.769,2.436,8.629,3.671
				c22.757,10.118,43.213,23.197,60.623,38.137l3.283,2.741l3.114,2.927c2.064,1.929,4.196,3.773,6.159,5.752
				c0.084,0.068,0.152,0.169,0.236,0.237c-49.998-61.91-130.994-102.129-222.395-102.129c-93.652,0-176.372,42.215-226.016,106.697
				c-4.196,8.037-7.935,16.04-11.235,23.941c-10.202,24.128-16.751,47.088-20.879,67.544c-0.457,2.572-0.948,5.093-1.405,7.58
				c-0.439,2.47-0.964,4.89-1.251,7.309c-0.643,4.823-1.286,9.442-1.878,13.892c-0.508,4.467-0.778,8.765-1.151,12.842
				c-0.152,2.03-0.355,4.01-0.474,5.973c-0.068,1.929-0.474,3.824-0.558,5.685
				C2108.315,1558.596,2107.723,1562.132,2107.723,1565.398z"/>
		</g>
	</g>
</g>
</svg>
